G04 EAGLE Gerber RS-274X export*
G75*
%MOMM*%
%FSLAX34Y34*%
%LPD*%
%INTop Copper*%
%IPPOS*%
%AMOC8*
5,1,8,0,0,1.08239X$1,22.5*%
G01*
%ADD10C,1.800000*%
%ADD11R,0.800000X0.800000*%
%ADD12C,1.930400*%
%ADD13R,2.540000X1.270000*%
%ADD14R,2.200000X2.150000*%
%ADD15C,1.000000*%
%ADD16R,1.879600X1.879600*%
%ADD17C,1.879600*%
%ADD18R,0.635000X1.270000*%
%ADD19C,0.508000*%
%ADD20C,1.980000*%
%ADD21R,1.800000X1.800000*%
%ADD22C,1.530000*%
%ADD23C,2.540000*%
%ADD24R,1.980000X1.980000*%
%ADD25R,2.700000X2.700000*%
%ADD26C,2.700000*%
%ADD27R,1.100000X1.000000*%
%ADD28P,1.583577X8X112.500000*%
%ADD29R,1.270000X1.780000*%
%ADD30C,1.270000*%
%ADD31C,0.700000*%
%ADD32C,1.016000*%
%ADD33C,0.609600*%
%ADD34C,0.502400*%

G36*
X154261Y78743D02*
X154261Y78743D01*
X154360Y78746D01*
X154418Y78763D01*
X154478Y78771D01*
X154570Y78807D01*
X154665Y78835D01*
X154717Y78865D01*
X154774Y78888D01*
X154854Y78946D01*
X154939Y78996D01*
X155014Y79062D01*
X155031Y79074D01*
X155039Y79084D01*
X155060Y79103D01*
X155370Y79413D01*
X161618Y82001D01*
X168382Y82001D01*
X174630Y79413D01*
X174940Y79103D01*
X175018Y79042D01*
X175091Y78974D01*
X175144Y78945D01*
X175191Y78908D01*
X175282Y78868D01*
X175369Y78820D01*
X175428Y78805D01*
X175483Y78781D01*
X175581Y78766D01*
X175677Y78741D01*
X175777Y78735D01*
X175797Y78731D01*
X175810Y78733D01*
X175838Y78731D01*
X554162Y78731D01*
X554261Y78743D01*
X554360Y78746D01*
X554418Y78763D01*
X554478Y78771D01*
X554570Y78807D01*
X554665Y78835D01*
X554717Y78865D01*
X554774Y78888D01*
X554854Y78946D01*
X554939Y78996D01*
X555014Y79062D01*
X555031Y79074D01*
X555039Y79084D01*
X555060Y79103D01*
X555370Y79413D01*
X561618Y82001D01*
X568382Y82001D01*
X574630Y79413D01*
X574940Y79103D01*
X575018Y79042D01*
X575091Y78974D01*
X575144Y78945D01*
X575191Y78908D01*
X575282Y78868D01*
X575369Y78820D01*
X575428Y78805D01*
X575483Y78781D01*
X575581Y78766D01*
X575677Y78741D01*
X575777Y78735D01*
X575797Y78731D01*
X575810Y78733D01*
X575838Y78731D01*
X616730Y78731D01*
X616848Y78746D01*
X616967Y78753D01*
X617005Y78766D01*
X617046Y78771D01*
X617156Y78814D01*
X617269Y78851D01*
X617304Y78873D01*
X617341Y78888D01*
X617437Y78958D01*
X617538Y79021D01*
X617566Y79051D01*
X617599Y79074D01*
X617675Y79166D01*
X617756Y79253D01*
X617776Y79288D01*
X617801Y79319D01*
X617852Y79427D01*
X617910Y79531D01*
X617920Y79571D01*
X617937Y79607D01*
X617959Y79724D01*
X617989Y79839D01*
X617993Y79900D01*
X617997Y79920D01*
X617995Y79940D01*
X617999Y80000D01*
X617999Y110829D01*
X619171Y112001D01*
X726730Y112001D01*
X726848Y112016D01*
X726967Y112023D01*
X727005Y112036D01*
X727046Y112041D01*
X727156Y112084D01*
X727269Y112121D01*
X727304Y112143D01*
X727341Y112158D01*
X727437Y112227D01*
X727538Y112291D01*
X727566Y112321D01*
X727599Y112344D01*
X727675Y112436D01*
X727756Y112523D01*
X727776Y112558D01*
X727801Y112589D01*
X727852Y112697D01*
X727910Y112801D01*
X727920Y112841D01*
X727937Y112877D01*
X727959Y112994D01*
X727989Y113109D01*
X727993Y113169D01*
X727997Y113189D01*
X727995Y113210D01*
X727999Y113270D01*
X727999Y292860D01*
X727984Y292978D01*
X727977Y293097D01*
X727964Y293135D01*
X727959Y293176D01*
X727916Y293286D01*
X727879Y293399D01*
X727857Y293434D01*
X727842Y293471D01*
X727773Y293567D01*
X727709Y293668D01*
X727679Y293696D01*
X727656Y293729D01*
X727564Y293805D01*
X727477Y293886D01*
X727442Y293906D01*
X727411Y293931D01*
X727303Y293982D01*
X727199Y294040D01*
X727159Y294050D01*
X727123Y294067D01*
X727006Y294089D01*
X726891Y294119D01*
X726831Y294123D01*
X726811Y294127D01*
X726790Y294125D01*
X726730Y294129D01*
X657055Y294129D01*
X656957Y294117D01*
X656858Y294114D01*
X656800Y294097D01*
X656740Y294089D01*
X656648Y294053D01*
X656553Y294025D01*
X656501Y293995D01*
X656444Y293972D01*
X656364Y293914D01*
X656279Y293864D01*
X656203Y293798D01*
X656187Y293786D01*
X656179Y293776D01*
X656158Y293758D01*
X575302Y212902D01*
X575242Y212824D01*
X575174Y212752D01*
X575150Y212709D01*
X575129Y212683D01*
X575123Y212671D01*
X575108Y212651D01*
X575068Y212560D01*
X575020Y212473D01*
X575009Y212428D01*
X574993Y212395D01*
X574990Y212380D01*
X574981Y212359D01*
X574966Y212261D01*
X574941Y212165D01*
X574937Y212101D01*
X574933Y212083D01*
X574934Y212064D01*
X574931Y212045D01*
X574933Y212033D01*
X574931Y212005D01*
X574931Y164466D01*
X574934Y164437D01*
X574932Y164408D01*
X574954Y164280D01*
X574971Y164151D01*
X574981Y164123D01*
X574986Y164094D01*
X575040Y163976D01*
X575088Y163855D01*
X575105Y163831D01*
X575117Y163804D01*
X575198Y163703D01*
X575274Y163598D01*
X575297Y163579D01*
X575316Y163556D01*
X575419Y163478D01*
X575519Y163395D01*
X575546Y163382D01*
X575570Y163365D01*
X575714Y163294D01*
X576609Y162923D01*
X580983Y158549D01*
X583351Y152833D01*
X583351Y146647D01*
X580983Y140931D01*
X576609Y136557D01*
X570893Y134189D01*
X564707Y134189D01*
X558991Y136557D01*
X554617Y140931D01*
X553380Y143918D01*
X553365Y143943D01*
X553356Y143971D01*
X553286Y144081D01*
X553222Y144194D01*
X553202Y144215D01*
X553186Y144240D01*
X553091Y144329D01*
X553001Y144422D01*
X552976Y144438D01*
X552954Y144458D01*
X552840Y144521D01*
X552730Y144589D01*
X552702Y144597D01*
X552676Y144612D01*
X552550Y144644D01*
X552426Y144682D01*
X552396Y144684D01*
X552368Y144691D01*
X552207Y144701D01*
X467812Y144701D01*
X467714Y144689D01*
X467614Y144686D01*
X467556Y144669D01*
X467496Y144661D01*
X467404Y144625D01*
X467309Y144597D01*
X467257Y144567D01*
X467200Y144544D01*
X467120Y144486D01*
X467035Y144436D01*
X466960Y144370D01*
X466943Y144358D01*
X466935Y144348D01*
X466914Y144330D01*
X457670Y135086D01*
X457610Y135008D01*
X457542Y134935D01*
X457513Y134882D01*
X457476Y134835D01*
X457436Y134744D01*
X457388Y134657D01*
X457373Y134598D01*
X457349Y134543D01*
X457334Y134445D01*
X457309Y134349D01*
X457303Y134249D01*
X457299Y134229D01*
X457301Y134216D01*
X457299Y134188D01*
X457299Y121147D01*
X457311Y121049D01*
X457314Y120950D01*
X457331Y120892D01*
X457339Y120832D01*
X457375Y120740D01*
X457403Y120644D01*
X457433Y120592D01*
X457456Y120536D01*
X457514Y120456D01*
X457564Y120371D01*
X457630Y120295D01*
X457642Y120279D01*
X457652Y120271D01*
X457670Y120250D01*
X458251Y119669D01*
X458251Y109971D01*
X457049Y108769D01*
X447351Y108769D01*
X446770Y109350D01*
X446692Y109410D01*
X446620Y109478D01*
X446567Y109507D01*
X446519Y109544D01*
X446428Y109584D01*
X446341Y109632D01*
X446283Y109647D01*
X446227Y109671D01*
X446129Y109686D01*
X446033Y109711D01*
X445933Y109717D01*
X445913Y109721D01*
X445901Y109719D01*
X445873Y109721D01*
X444455Y109721D01*
X444337Y109706D01*
X444218Y109699D01*
X444180Y109686D01*
X444139Y109681D01*
X444029Y109638D01*
X443916Y109601D01*
X443881Y109579D01*
X443844Y109564D01*
X443748Y109495D01*
X443647Y109431D01*
X443619Y109401D01*
X443586Y109378D01*
X443510Y109286D01*
X443429Y109199D01*
X443409Y109164D01*
X443384Y109133D01*
X443333Y109025D01*
X443275Y108921D01*
X443265Y108881D01*
X443248Y108845D01*
X443226Y108728D01*
X443196Y108613D01*
X443192Y108553D01*
X443188Y108533D01*
X443190Y108512D01*
X443186Y108452D01*
X443186Y108431D01*
X441984Y107229D01*
X414886Y107229D01*
X413684Y108431D01*
X413684Y122829D01*
X414886Y124031D01*
X441984Y124031D01*
X443186Y122829D01*
X443186Y121188D01*
X443201Y121070D01*
X443208Y120951D01*
X443221Y120913D01*
X443226Y120872D01*
X443269Y120762D01*
X443306Y120649D01*
X443328Y120614D01*
X443343Y120577D01*
X443412Y120481D01*
X443476Y120380D01*
X443506Y120352D01*
X443529Y120319D01*
X443621Y120243D01*
X443708Y120162D01*
X443743Y120142D01*
X443774Y120117D01*
X443882Y120066D01*
X443986Y120008D01*
X444026Y119998D01*
X444062Y119981D01*
X444179Y119959D01*
X444294Y119929D01*
X444354Y119925D01*
X444374Y119921D01*
X444395Y119923D01*
X444455Y119919D01*
X445832Y119919D01*
X445950Y119934D01*
X446069Y119941D01*
X446107Y119954D01*
X446148Y119959D01*
X446258Y120002D01*
X446371Y120039D01*
X446406Y120061D01*
X446443Y120076D01*
X446539Y120145D01*
X446640Y120209D01*
X446668Y120239D01*
X446701Y120262D01*
X446777Y120354D01*
X446858Y120441D01*
X446878Y120476D01*
X446903Y120507D01*
X446954Y120615D01*
X447012Y120719D01*
X447022Y120759D01*
X447039Y120795D01*
X447061Y120912D01*
X447091Y121027D01*
X447095Y121087D01*
X447099Y121107D01*
X447097Y121128D01*
X447101Y121188D01*
X447101Y134188D01*
X447089Y134286D01*
X447086Y134386D01*
X447069Y134444D01*
X447061Y134504D01*
X447025Y134596D01*
X446997Y134691D01*
X446967Y134743D01*
X446944Y134800D01*
X446886Y134880D01*
X446836Y134965D01*
X446770Y135040D01*
X446758Y135057D01*
X446748Y135065D01*
X446730Y135086D01*
X435757Y146058D01*
X434981Y147932D01*
X434981Y155970D01*
X434966Y156088D01*
X434959Y156207D01*
X434946Y156245D01*
X434941Y156286D01*
X434898Y156396D01*
X434861Y156509D01*
X434839Y156544D01*
X434824Y156581D01*
X434755Y156677D01*
X434691Y156778D01*
X434661Y156806D01*
X434638Y156839D01*
X434546Y156915D01*
X434459Y156996D01*
X434424Y157016D01*
X434393Y157041D01*
X434285Y157092D01*
X434181Y157150D01*
X434141Y157160D01*
X434105Y157177D01*
X433988Y157199D01*
X433873Y157229D01*
X433813Y157233D01*
X433793Y157237D01*
X433772Y157235D01*
X433712Y157239D01*
X428231Y157239D01*
X427029Y158441D01*
X427029Y181639D01*
X428231Y182841D01*
X451929Y182841D01*
X453131Y181639D01*
X453131Y158441D01*
X451929Y157239D01*
X446448Y157239D01*
X446330Y157224D01*
X446211Y157217D01*
X446173Y157204D01*
X446132Y157199D01*
X446022Y157156D01*
X445909Y157119D01*
X445874Y157097D01*
X445837Y157082D01*
X445741Y157013D01*
X445640Y156949D01*
X445612Y156919D01*
X445579Y156896D01*
X445503Y156804D01*
X445422Y156717D01*
X445402Y156682D01*
X445377Y156651D01*
X445326Y156543D01*
X445268Y156439D01*
X445258Y156399D01*
X445241Y156363D01*
X445219Y156246D01*
X445189Y156131D01*
X445185Y156071D01*
X445181Y156051D01*
X445183Y156030D01*
X445179Y155970D01*
X445179Y151584D01*
X445191Y151486D01*
X445194Y151386D01*
X445211Y151328D01*
X445219Y151268D01*
X445255Y151176D01*
X445283Y151081D01*
X445313Y151029D01*
X445336Y150972D01*
X445394Y150892D01*
X445444Y150807D01*
X445510Y150732D01*
X445522Y150715D01*
X445532Y150707D01*
X445550Y150686D01*
X451302Y144934D01*
X451397Y144861D01*
X451486Y144782D01*
X451522Y144764D01*
X451554Y144739D01*
X451663Y144692D01*
X451769Y144638D01*
X451808Y144629D01*
X451846Y144613D01*
X451963Y144594D01*
X452079Y144568D01*
X452120Y144569D01*
X452160Y144563D01*
X452278Y144574D01*
X452397Y144578D01*
X452436Y144589D01*
X452476Y144593D01*
X452589Y144633D01*
X452703Y144666D01*
X452737Y144687D01*
X452776Y144700D01*
X452874Y144767D01*
X452977Y144828D01*
X453022Y144868D01*
X453039Y144879D01*
X453052Y144894D01*
X453097Y144934D01*
X462286Y154123D01*
X464160Y154899D01*
X552257Y154899D01*
X552286Y154902D01*
X552315Y154900D01*
X552444Y154922D01*
X552572Y154939D01*
X552600Y154949D01*
X552629Y154954D01*
X552747Y155008D01*
X552868Y155056D01*
X552892Y155073D01*
X552919Y155085D01*
X553020Y155166D01*
X553125Y155242D01*
X553144Y155265D01*
X553167Y155284D01*
X553245Y155387D01*
X553328Y155487D01*
X553341Y155514D01*
X553358Y155538D01*
X553429Y155682D01*
X554617Y158549D01*
X558991Y162923D01*
X559886Y163294D01*
X559911Y163308D01*
X559939Y163318D01*
X560049Y163387D01*
X560162Y163451D01*
X560183Y163472D01*
X560208Y163488D01*
X560297Y163582D01*
X560390Y163673D01*
X560406Y163698D01*
X560426Y163719D01*
X560489Y163833D01*
X560557Y163944D01*
X560565Y163972D01*
X560580Y163998D01*
X560612Y164123D01*
X560650Y164248D01*
X560652Y164277D01*
X560659Y164306D01*
X560669Y164466D01*
X560669Y208770D01*
X560654Y208888D01*
X560647Y209007D01*
X560634Y209045D01*
X560629Y209086D01*
X560586Y209196D01*
X560549Y209309D01*
X560527Y209344D01*
X560512Y209381D01*
X560443Y209477D01*
X560379Y209578D01*
X560349Y209606D01*
X560326Y209639D01*
X560234Y209715D01*
X560147Y209796D01*
X560112Y209816D01*
X560081Y209841D01*
X559973Y209892D01*
X559869Y209950D01*
X559829Y209960D01*
X559793Y209977D01*
X559676Y209999D01*
X559561Y210029D01*
X559501Y210033D01*
X559481Y210037D01*
X559460Y210035D01*
X559400Y210039D01*
X514964Y210039D01*
X511876Y211318D01*
X509335Y213860D01*
X455242Y267953D01*
X455164Y268013D01*
X455092Y268081D01*
X455039Y268110D01*
X454991Y268147D01*
X454900Y268187D01*
X454813Y268235D01*
X454755Y268250D01*
X454699Y268274D01*
X454601Y268289D01*
X454505Y268314D01*
X454405Y268320D01*
X454385Y268324D01*
X454373Y268322D01*
X454345Y268324D01*
X448601Y268324D01*
X447399Y269526D01*
X447399Y289024D01*
X448601Y290226D01*
X449432Y290226D01*
X449550Y290241D01*
X449669Y290248D01*
X449707Y290261D01*
X449748Y290266D01*
X449858Y290309D01*
X449971Y290346D01*
X450006Y290368D01*
X450043Y290383D01*
X450139Y290452D01*
X450240Y290516D01*
X450268Y290546D01*
X450301Y290569D01*
X450377Y290661D01*
X450458Y290748D01*
X450478Y290783D01*
X450503Y290814D01*
X450554Y290922D01*
X450612Y291026D01*
X450622Y291066D01*
X450639Y291102D01*
X450661Y291219D01*
X450691Y291334D01*
X450695Y291394D01*
X450699Y291414D01*
X450697Y291435D01*
X450701Y291495D01*
X450701Y292860D01*
X450686Y292978D01*
X450679Y293097D01*
X450666Y293135D01*
X450661Y293176D01*
X450618Y293286D01*
X450581Y293399D01*
X450559Y293434D01*
X450544Y293471D01*
X450475Y293567D01*
X450411Y293668D01*
X450381Y293696D01*
X450358Y293729D01*
X450266Y293805D01*
X450179Y293886D01*
X450144Y293906D01*
X450113Y293931D01*
X450005Y293982D01*
X449901Y294040D01*
X449861Y294050D01*
X449825Y294067D01*
X449708Y294089D01*
X449593Y294119D01*
X449533Y294123D01*
X449513Y294127D01*
X449492Y294125D01*
X449432Y294129D01*
X393568Y294129D01*
X393450Y294114D01*
X393331Y294107D01*
X393293Y294094D01*
X393252Y294089D01*
X393142Y294046D01*
X393029Y294009D01*
X392994Y293987D01*
X392957Y293972D01*
X392861Y293903D01*
X392760Y293839D01*
X392732Y293809D01*
X392699Y293786D01*
X392623Y293694D01*
X392542Y293607D01*
X392522Y293572D01*
X392497Y293541D01*
X392446Y293433D01*
X392388Y293329D01*
X392378Y293289D01*
X392361Y293253D01*
X392339Y293136D01*
X392309Y293021D01*
X392305Y292961D01*
X392301Y292941D01*
X392303Y292920D01*
X392299Y292860D01*
X392299Y291495D01*
X392314Y291377D01*
X392321Y291258D01*
X392334Y291220D01*
X392339Y291179D01*
X392382Y291069D01*
X392419Y290956D01*
X392441Y290921D01*
X392456Y290884D01*
X392525Y290788D01*
X392589Y290687D01*
X392619Y290659D01*
X392642Y290626D01*
X392734Y290550D01*
X392821Y290469D01*
X392856Y290449D01*
X392887Y290424D01*
X392995Y290373D01*
X393099Y290315D01*
X393139Y290305D01*
X393175Y290288D01*
X393292Y290266D01*
X393407Y290236D01*
X393467Y290232D01*
X393487Y290228D01*
X393508Y290230D01*
X393568Y290226D01*
X394399Y290226D01*
X395601Y289024D01*
X395601Y269526D01*
X394399Y268324D01*
X380001Y268324D01*
X378799Y269526D01*
X378799Y269730D01*
X378784Y269848D01*
X378777Y269967D01*
X378764Y270005D01*
X378759Y270046D01*
X378716Y270156D01*
X378679Y270269D01*
X378657Y270304D01*
X378642Y270341D01*
X378573Y270437D01*
X378509Y270538D01*
X378479Y270566D01*
X378456Y270599D01*
X378364Y270675D01*
X378277Y270756D01*
X378242Y270776D01*
X378211Y270801D01*
X378103Y270852D01*
X377999Y270910D01*
X377959Y270920D01*
X377923Y270937D01*
X377806Y270959D01*
X377691Y270989D01*
X377631Y270993D01*
X377611Y270997D01*
X377590Y270995D01*
X377530Y270999D01*
X333405Y270999D01*
X333307Y270987D01*
X333208Y270984D01*
X333150Y270967D01*
X333090Y270959D01*
X332998Y270923D01*
X332903Y270895D01*
X332851Y270865D01*
X332794Y270842D01*
X332714Y270784D01*
X332629Y270734D01*
X332553Y270668D01*
X332537Y270656D01*
X332529Y270646D01*
X332508Y270628D01*
X287422Y225542D01*
X287362Y225464D01*
X287294Y225392D01*
X287265Y225339D01*
X287228Y225291D01*
X287188Y225200D01*
X287140Y225113D01*
X287125Y225055D01*
X287101Y224999D01*
X287086Y224901D01*
X287061Y224805D01*
X287055Y224705D01*
X287051Y224685D01*
X287053Y224673D01*
X287051Y224645D01*
X287051Y202216D01*
X287063Y202118D01*
X287066Y202019D01*
X287083Y201960D01*
X287091Y201900D01*
X287127Y201808D01*
X287155Y201713D01*
X287185Y201661D01*
X287208Y201605D01*
X287266Y201525D01*
X287316Y201439D01*
X287382Y201364D01*
X287394Y201347D01*
X287404Y201340D01*
X287423Y201318D01*
X288356Y200385D01*
X290177Y195987D01*
X290246Y195867D01*
X290311Y195744D01*
X290325Y195729D01*
X290335Y195711D01*
X290432Y195611D01*
X290525Y195508D01*
X290542Y195497D01*
X290556Y195483D01*
X290674Y195410D01*
X290791Y195334D01*
X290810Y195327D01*
X290827Y195317D01*
X290960Y195276D01*
X291092Y195230D01*
X291112Y195229D01*
X291131Y195223D01*
X291270Y195216D01*
X291409Y195205D01*
X291429Y195209D01*
X291449Y195208D01*
X291585Y195236D01*
X291722Y195260D01*
X291741Y195268D01*
X291760Y195272D01*
X291885Y195333D01*
X292012Y195390D01*
X292028Y195403D01*
X292046Y195412D01*
X292152Y195502D01*
X292260Y195589D01*
X292273Y195605D01*
X292288Y195618D01*
X292368Y195732D01*
X292452Y195843D01*
X292464Y195868D01*
X292471Y195878D01*
X292478Y195897D01*
X292523Y195987D01*
X294344Y200385D01*
X297565Y203606D01*
X298676Y204066D01*
X298701Y204081D01*
X298729Y204090D01*
X298839Y204159D01*
X298952Y204223D01*
X298973Y204244D01*
X298998Y204260D01*
X299087Y204354D01*
X299180Y204445D01*
X299196Y204470D01*
X299216Y204491D01*
X299279Y204605D01*
X299347Y204716D01*
X299355Y204744D01*
X299370Y204770D01*
X299402Y204895D01*
X299440Y205020D01*
X299442Y205049D01*
X299449Y205078D01*
X299459Y205239D01*
X299459Y218692D01*
X306133Y225365D01*
X306193Y225443D01*
X306261Y225515D01*
X306290Y225568D01*
X306327Y225616D01*
X306367Y225707D01*
X306415Y225794D01*
X306430Y225852D01*
X306454Y225908D01*
X306469Y226006D01*
X306494Y226102D01*
X306500Y226202D01*
X306504Y226222D01*
X306502Y226234D01*
X306504Y226262D01*
X306504Y231669D01*
X307706Y232871D01*
X324754Y232871D01*
X325956Y231669D01*
X325956Y226262D01*
X325968Y226164D01*
X325971Y226065D01*
X325988Y226007D01*
X325996Y225947D01*
X326032Y225855D01*
X326060Y225760D01*
X326090Y225707D01*
X326113Y225651D01*
X326171Y225571D01*
X326221Y225486D01*
X326287Y225410D01*
X326299Y225394D01*
X326309Y225386D01*
X326327Y225365D01*
X334041Y217652D01*
X334041Y213435D01*
X334058Y213298D01*
X334071Y213159D01*
X334078Y213140D01*
X334081Y213120D01*
X334132Y212991D01*
X334179Y212860D01*
X334190Y212843D01*
X334198Y212824D01*
X334279Y212712D01*
X334357Y212597D01*
X334373Y212583D01*
X334384Y212567D01*
X334492Y212478D01*
X334596Y212386D01*
X334614Y212377D01*
X334629Y212364D01*
X334755Y212305D01*
X334879Y212242D01*
X334899Y212237D01*
X334917Y212228D01*
X335053Y212202D01*
X335189Y212172D01*
X335210Y212173D01*
X335229Y212169D01*
X335368Y212177D01*
X335507Y212182D01*
X335527Y212187D01*
X335547Y212188D01*
X335679Y212231D01*
X335813Y212270D01*
X335830Y212280D01*
X335849Y212286D01*
X335967Y212361D01*
X336087Y212431D01*
X336108Y212450D01*
X336118Y212457D01*
X336132Y212472D01*
X336207Y212538D01*
X356850Y233180D01*
X359391Y235722D01*
X362479Y237001D01*
X377530Y237001D01*
X377648Y237016D01*
X377767Y237023D01*
X377805Y237036D01*
X377846Y237041D01*
X377956Y237084D01*
X378069Y237121D01*
X378104Y237143D01*
X378141Y237158D01*
X378237Y237227D01*
X378338Y237291D01*
X378366Y237321D01*
X378399Y237344D01*
X378475Y237436D01*
X378556Y237523D01*
X378576Y237558D01*
X378601Y237589D01*
X378652Y237697D01*
X378710Y237801D01*
X378720Y237841D01*
X378737Y237877D01*
X378759Y237994D01*
X378789Y238109D01*
X378793Y238169D01*
X378797Y238189D01*
X378795Y238210D01*
X378796Y238221D01*
X380001Y239426D01*
X394399Y239426D01*
X395601Y238224D01*
X395601Y218726D01*
X394565Y217690D01*
X394492Y217596D01*
X394414Y217507D01*
X394395Y217471D01*
X394370Y217439D01*
X394323Y217329D01*
X394269Y217224D01*
X394260Y217184D01*
X394244Y217147D01*
X394225Y217029D01*
X394199Y216913D01*
X394201Y216873D01*
X394194Y216833D01*
X394205Y216714D01*
X394209Y216596D01*
X394220Y216557D01*
X394224Y216516D01*
X394264Y216404D01*
X394297Y216290D01*
X394318Y216255D01*
X394332Y216217D01*
X394399Y216118D01*
X394459Y216016D01*
X394499Y215971D01*
X394510Y215954D01*
X394526Y215940D01*
X394565Y215895D01*
X403332Y207128D01*
X403410Y207068D01*
X403483Y207000D01*
X403536Y206971D01*
X403583Y206934D01*
X403674Y206894D01*
X403761Y206846D01*
X403820Y206831D01*
X403875Y206807D01*
X403973Y206792D01*
X404069Y206767D01*
X404169Y206761D01*
X404189Y206757D01*
X404202Y206759D01*
X404230Y206757D01*
X410671Y206757D01*
X410789Y206772D01*
X410908Y206779D01*
X410946Y206792D01*
X410987Y206797D01*
X411097Y206840D01*
X411210Y206877D01*
X411245Y206899D01*
X411282Y206914D01*
X411378Y206983D01*
X411479Y207047D01*
X411507Y207077D01*
X411540Y207100D01*
X411616Y207192D01*
X411697Y207279D01*
X411717Y207314D01*
X411742Y207345D01*
X411793Y207453D01*
X411851Y207557D01*
X411861Y207597D01*
X411878Y207633D01*
X411900Y207750D01*
X411930Y207865D01*
X411934Y207925D01*
X411938Y207945D01*
X411936Y207966D01*
X411940Y208026D01*
X411940Y208857D01*
X413142Y210059D01*
X421237Y210059D01*
X421240Y210058D01*
X421277Y210029D01*
X421380Y209984D01*
X421480Y209932D01*
X421525Y209921D01*
X421569Y209902D01*
X421680Y209885D01*
X421789Y209859D01*
X421836Y209860D01*
X421883Y209852D01*
X421995Y209863D01*
X422107Y209865D01*
X422152Y209878D01*
X422199Y209882D01*
X422305Y209920D01*
X422413Y209950D01*
X422478Y209983D01*
X422499Y209990D01*
X422514Y210000D01*
X422558Y210022D01*
X423170Y210376D01*
X423817Y210549D01*
X425739Y210549D01*
X425739Y207518D01*
X425754Y207400D01*
X425762Y207281D01*
X425774Y207243D01*
X425779Y207202D01*
X425823Y207092D01*
X425860Y206979D01*
X425881Y206944D01*
X425896Y206907D01*
X425966Y206811D01*
X426030Y206710D01*
X426059Y206682D01*
X426083Y206649D01*
X426175Y206573D01*
X426261Y206492D01*
X426297Y206472D01*
X426328Y206447D01*
X426436Y206396D01*
X426540Y206338D01*
X426579Y206328D01*
X426616Y206311D01*
X426732Y206289D01*
X426848Y206259D01*
X426908Y206255D01*
X426928Y206251D01*
X426948Y206253D01*
X427008Y206249D01*
X427644Y206249D01*
X427762Y206264D01*
X427880Y206271D01*
X427919Y206284D01*
X427959Y206289D01*
X428070Y206332D01*
X428183Y206369D01*
X428217Y206391D01*
X428255Y206406D01*
X428351Y206475D01*
X428452Y206539D01*
X428479Y206569D01*
X428512Y206592D01*
X428588Y206684D01*
X428670Y206771D01*
X428689Y206806D01*
X428715Y206837D01*
X428766Y206945D01*
X428823Y207049D01*
X428833Y207089D01*
X428850Y207125D01*
X428873Y207242D01*
X428903Y207357D01*
X428906Y207417D01*
X428910Y207437D01*
X428909Y207458D01*
X428913Y207518D01*
X428913Y210549D01*
X430835Y210549D01*
X431482Y210376D01*
X432061Y210041D01*
X432534Y209568D01*
X432869Y208989D01*
X433042Y208342D01*
X433042Y203245D01*
X431916Y203245D01*
X431798Y203230D01*
X431679Y203222D01*
X431641Y203210D01*
X431600Y203205D01*
X431490Y203161D01*
X431377Y203124D01*
X431342Y203103D01*
X431305Y203088D01*
X431209Y203018D01*
X431108Y202954D01*
X431080Y202925D01*
X431047Y202901D01*
X430971Y202809D01*
X430890Y202723D01*
X430870Y202687D01*
X430845Y202656D01*
X430794Y202548D01*
X430736Y202444D01*
X430726Y202405D01*
X430709Y202368D01*
X430687Y202252D01*
X430657Y202136D01*
X430653Y202076D01*
X430649Y202056D01*
X430651Y202036D01*
X430647Y201976D01*
X430647Y201340D01*
X430662Y201222D01*
X430669Y201104D01*
X430682Y201065D01*
X430687Y201025D01*
X430730Y200914D01*
X430767Y200801D01*
X430789Y200767D01*
X430804Y200729D01*
X430873Y200633D01*
X430937Y200532D01*
X430967Y200505D01*
X430990Y200472D01*
X431082Y200396D01*
X431169Y200314D01*
X431204Y200295D01*
X431235Y200269D01*
X431343Y200218D01*
X431447Y200161D01*
X431487Y200151D01*
X431523Y200134D01*
X431640Y200111D01*
X431755Y200081D01*
X431815Y200078D01*
X431835Y200074D01*
X431856Y200075D01*
X431916Y200071D01*
X433042Y200071D01*
X433042Y194974D01*
X432869Y194327D01*
X432534Y193748D01*
X432061Y193275D01*
X431482Y192940D01*
X430835Y192767D01*
X428913Y192767D01*
X428913Y195798D01*
X428898Y195916D01*
X428890Y196035D01*
X428878Y196073D01*
X428873Y196114D01*
X428829Y196224D01*
X428792Y196337D01*
X428771Y196372D01*
X428756Y196409D01*
X428686Y196505D01*
X428622Y196606D01*
X428593Y196634D01*
X428569Y196667D01*
X428477Y196743D01*
X428391Y196824D01*
X428355Y196844D01*
X428324Y196869D01*
X428216Y196920D01*
X428112Y196978D01*
X428073Y196988D01*
X428036Y197005D01*
X427920Y197027D01*
X427804Y197057D01*
X427744Y197061D01*
X427724Y197065D01*
X427704Y197063D01*
X427644Y197067D01*
X427008Y197067D01*
X426890Y197052D01*
X426772Y197045D01*
X426733Y197032D01*
X426693Y197027D01*
X426582Y196984D01*
X426469Y196947D01*
X426435Y196925D01*
X426397Y196910D01*
X426301Y196841D01*
X426200Y196777D01*
X426173Y196747D01*
X426140Y196724D01*
X426064Y196632D01*
X425982Y196545D01*
X425963Y196510D01*
X425937Y196479D01*
X425886Y196371D01*
X425829Y196267D01*
X425819Y196227D01*
X425802Y196191D01*
X425779Y196074D01*
X425749Y195959D01*
X425746Y195899D01*
X425742Y195879D01*
X425743Y195858D01*
X425739Y195798D01*
X425739Y192767D01*
X423817Y192767D01*
X423170Y192940D01*
X422558Y193294D01*
X422454Y193338D01*
X422354Y193389D01*
X422308Y193399D01*
X422265Y193417D01*
X422153Y193434D01*
X422044Y193458D01*
X421997Y193457D01*
X421950Y193464D01*
X421838Y193452D01*
X421726Y193449D01*
X421681Y193436D01*
X421634Y193431D01*
X421528Y193392D01*
X421420Y193360D01*
X421380Y193336D01*
X421336Y193320D01*
X421245Y193257D01*
X413142Y193257D01*
X411940Y194459D01*
X411940Y195290D01*
X411925Y195408D01*
X411918Y195527D01*
X411905Y195565D01*
X411900Y195606D01*
X411857Y195716D01*
X411820Y195829D01*
X411798Y195864D01*
X411783Y195901D01*
X411714Y195997D01*
X411650Y196098D01*
X411620Y196126D01*
X411597Y196159D01*
X411505Y196235D01*
X411418Y196316D01*
X411383Y196336D01*
X411352Y196361D01*
X411244Y196412D01*
X411140Y196470D01*
X411100Y196480D01*
X411064Y196497D01*
X410947Y196519D01*
X410832Y196549D01*
X410772Y196553D01*
X410752Y196557D01*
X410731Y196555D01*
X410671Y196559D01*
X400578Y196559D01*
X398704Y197335D01*
X382877Y213162D01*
X382101Y215036D01*
X382101Y216255D01*
X382086Y216373D01*
X382079Y216492D01*
X382066Y216530D01*
X382061Y216571D01*
X382018Y216681D01*
X381981Y216794D01*
X381959Y216829D01*
X381944Y216866D01*
X381875Y216962D01*
X381811Y217063D01*
X381781Y217091D01*
X381758Y217124D01*
X381666Y217200D01*
X381579Y217281D01*
X381544Y217301D01*
X381513Y217326D01*
X381405Y217377D01*
X381301Y217435D01*
X381261Y217445D01*
X381225Y217462D01*
X381108Y217484D01*
X380993Y217514D01*
X380933Y217518D01*
X380913Y217522D01*
X380892Y217520D01*
X380832Y217524D01*
X380001Y217524D01*
X378799Y218726D01*
X378799Y218930D01*
X378784Y219048D01*
X378777Y219167D01*
X378764Y219205D01*
X378759Y219246D01*
X378716Y219356D01*
X378679Y219469D01*
X378657Y219504D01*
X378642Y219541D01*
X378573Y219637D01*
X378509Y219738D01*
X378479Y219766D01*
X378456Y219799D01*
X378364Y219875D01*
X378277Y219956D01*
X378242Y219976D01*
X378211Y220001D01*
X378103Y220052D01*
X377999Y220110D01*
X377959Y220120D01*
X377923Y220137D01*
X377806Y220159D01*
X377691Y220189D01*
X377631Y220193D01*
X377611Y220197D01*
X377590Y220195D01*
X377530Y220199D01*
X368155Y220199D01*
X368057Y220187D01*
X367958Y220184D01*
X367900Y220167D01*
X367840Y220159D01*
X367748Y220123D01*
X367653Y220095D01*
X367601Y220065D01*
X367544Y220042D01*
X367464Y219984D01*
X367379Y219934D01*
X367303Y219868D01*
X367287Y219856D01*
X367279Y219846D01*
X367258Y219828D01*
X341270Y193840D01*
X341210Y193762D01*
X341142Y193690D01*
X341113Y193637D01*
X341076Y193589D01*
X341036Y193498D01*
X340988Y193411D01*
X340973Y193353D01*
X340949Y193297D01*
X340934Y193199D01*
X340909Y193103D01*
X340903Y193003D01*
X340899Y192983D01*
X340901Y192971D01*
X340899Y192943D01*
X340899Y191623D01*
X339156Y187415D01*
X337456Y185715D01*
X337374Y185609D01*
X337288Y185508D01*
X337277Y185484D01*
X337261Y185463D01*
X337208Y185341D01*
X337150Y185221D01*
X337145Y185196D01*
X337134Y185171D01*
X337113Y185040D01*
X337087Y184910D01*
X337087Y184872D01*
X337084Y184857D01*
X337086Y184836D01*
X337086Y184749D01*
X337261Y181508D01*
X337276Y181424D01*
X337281Y181339D01*
X337316Y181206D01*
X337318Y181195D01*
X337319Y181191D01*
X337322Y181183D01*
X337419Y180885D01*
X337352Y180020D01*
X337352Y180018D01*
X337352Y180015D01*
X337350Y179854D01*
X337397Y178988D01*
X337293Y178693D01*
X337275Y178609D01*
X337247Y178528D01*
X337228Y178392D01*
X337225Y178382D01*
X337226Y178378D01*
X337224Y178369D01*
X337200Y178056D01*
X336808Y177283D01*
X336807Y177281D01*
X336805Y177279D01*
X336742Y177130D01*
X336454Y176313D01*
X336245Y176080D01*
X336196Y176009D01*
X336140Y175945D01*
X336070Y175827D01*
X336064Y175818D01*
X336062Y175814D01*
X336058Y175806D01*
X335916Y175527D01*
X335258Y174963D01*
X335256Y174961D01*
X335253Y174960D01*
X335139Y174847D01*
X334560Y174202D01*
X334277Y174066D01*
X334205Y174020D01*
X334128Y173982D01*
X334018Y173900D01*
X334009Y173894D01*
X334007Y173891D01*
X333999Y173885D01*
X328642Y169297D01*
X328543Y169188D01*
X328442Y169080D01*
X328436Y169070D01*
X328429Y169062D01*
X328360Y168931D01*
X328288Y168802D01*
X328286Y168791D01*
X328280Y168780D01*
X328246Y168636D01*
X328209Y168494D01*
X328208Y168478D01*
X328206Y168471D01*
X328206Y168455D01*
X328199Y168333D01*
X328199Y166223D01*
X326456Y162015D01*
X323235Y158794D01*
X319027Y157051D01*
X314473Y157051D01*
X310265Y158794D01*
X307044Y162015D01*
X305223Y166413D01*
X305154Y166533D01*
X305089Y166656D01*
X305075Y166671D01*
X305065Y166689D01*
X304968Y166789D01*
X304875Y166892D01*
X304858Y166903D01*
X304844Y166917D01*
X304725Y166990D01*
X304609Y167066D01*
X304590Y167073D01*
X304573Y167083D01*
X304440Y167124D01*
X304308Y167170D01*
X304288Y167171D01*
X304269Y167177D01*
X304130Y167184D01*
X303991Y167195D01*
X303971Y167191D01*
X303951Y167192D01*
X303815Y167164D01*
X303678Y167140D01*
X303659Y167132D01*
X303640Y167128D01*
X303514Y167067D01*
X303388Y167010D01*
X303372Y166997D01*
X303354Y166988D01*
X303248Y166898D01*
X303140Y166811D01*
X303127Y166795D01*
X303112Y166782D01*
X303032Y166668D01*
X302948Y166557D01*
X302936Y166532D01*
X302929Y166522D01*
X302922Y166503D01*
X302877Y166413D01*
X301056Y162015D01*
X297835Y158794D01*
X293627Y157051D01*
X289073Y157051D01*
X284865Y158794D01*
X281644Y162015D01*
X279823Y166413D01*
X279754Y166533D01*
X279689Y166656D01*
X279675Y166671D01*
X279665Y166689D01*
X279568Y166789D01*
X279475Y166892D01*
X279458Y166903D01*
X279444Y166917D01*
X279325Y166990D01*
X279209Y167066D01*
X279190Y167073D01*
X279173Y167083D01*
X279040Y167124D01*
X278908Y167170D01*
X278888Y167171D01*
X278869Y167177D01*
X278730Y167184D01*
X278591Y167195D01*
X278571Y167191D01*
X278551Y167192D01*
X278415Y167164D01*
X278278Y167140D01*
X278259Y167132D01*
X278240Y167128D01*
X278114Y167067D01*
X277988Y167010D01*
X277972Y166997D01*
X277954Y166988D01*
X277848Y166898D01*
X277740Y166811D01*
X277727Y166795D01*
X277712Y166782D01*
X277632Y166668D01*
X277548Y166557D01*
X277536Y166532D01*
X277529Y166522D01*
X277522Y166503D01*
X277477Y166413D01*
X275656Y162015D01*
X272435Y158794D01*
X271324Y158334D01*
X271299Y158319D01*
X271271Y158310D01*
X271161Y158241D01*
X271048Y158177D01*
X271027Y158156D01*
X271002Y158140D01*
X270913Y158046D01*
X270820Y157955D01*
X270804Y157930D01*
X270784Y157909D01*
X270721Y157795D01*
X270653Y157684D01*
X270645Y157656D01*
X270630Y157630D01*
X270598Y157505D01*
X270560Y157380D01*
X270558Y157351D01*
X270551Y157322D01*
X270541Y157161D01*
X270541Y144048D01*
X261902Y135409D01*
X218098Y135409D01*
X205409Y148098D01*
X205409Y187573D01*
X205397Y187671D01*
X205394Y187770D01*
X205377Y187828D01*
X205369Y187888D01*
X205333Y187980D01*
X205305Y188075D01*
X205275Y188128D01*
X205252Y188184D01*
X205194Y188264D01*
X205144Y188349D01*
X205078Y188425D01*
X205066Y188441D01*
X205056Y188449D01*
X205038Y188470D01*
X148470Y245038D01*
X148392Y245098D01*
X148320Y245166D01*
X148267Y245195D01*
X148219Y245232D01*
X148128Y245272D01*
X148041Y245320D01*
X147983Y245335D01*
X147927Y245359D01*
X147829Y245374D01*
X147733Y245399D01*
X147633Y245405D01*
X147613Y245409D01*
X147601Y245407D01*
X147573Y245409D01*
X98618Y245409D01*
X25889Y318138D01*
X25889Y611502D01*
X96638Y682250D01*
X96698Y682328D01*
X96766Y682400D01*
X96795Y682453D01*
X96832Y682501D01*
X96872Y682592D01*
X96920Y682679D01*
X96935Y682737D01*
X96959Y682793D01*
X96974Y682891D01*
X96999Y682987D01*
X97005Y683087D01*
X97009Y683107D01*
X97007Y683119D01*
X97009Y683147D01*
X97009Y724013D01*
X96997Y724111D01*
X96994Y724210D01*
X96977Y724268D01*
X96969Y724328D01*
X96933Y724420D01*
X96905Y724515D01*
X96875Y724568D01*
X96852Y724624D01*
X96794Y724704D01*
X96744Y724789D01*
X96678Y724865D01*
X96666Y724881D01*
X96656Y724889D01*
X96638Y724910D01*
X91570Y729978D01*
X91492Y730038D01*
X91420Y730106D01*
X91367Y730135D01*
X91319Y730172D01*
X91228Y730212D01*
X91141Y730260D01*
X91083Y730275D01*
X91027Y730299D01*
X90929Y730314D01*
X90833Y730339D01*
X90733Y730345D01*
X90713Y730349D01*
X90701Y730347D01*
X90673Y730349D01*
X79420Y730349D01*
X79302Y730334D01*
X79183Y730327D01*
X79145Y730314D01*
X79104Y730309D01*
X78994Y730266D01*
X78881Y730229D01*
X78846Y730207D01*
X78809Y730192D01*
X78713Y730123D01*
X78612Y730059D01*
X78584Y730029D01*
X78551Y730006D01*
X78475Y729914D01*
X78394Y729827D01*
X78374Y729792D01*
X78349Y729761D01*
X78298Y729653D01*
X78240Y729549D01*
X78230Y729509D01*
X78213Y729473D01*
X78191Y729356D01*
X78161Y729241D01*
X78157Y729181D01*
X78153Y729161D01*
X78155Y729140D01*
X78151Y729080D01*
X78151Y728971D01*
X76930Y727750D01*
X76784Y727733D01*
X76778Y727730D01*
X76771Y727729D01*
X76629Y727673D01*
X76487Y727619D01*
X76482Y727615D01*
X76475Y727612D01*
X76353Y727523D01*
X76228Y727435D01*
X76223Y727429D01*
X76218Y727426D01*
X76121Y727309D01*
X76022Y727192D01*
X76020Y727186D01*
X76015Y727181D01*
X75951Y727044D01*
X75884Y726906D01*
X75882Y726899D01*
X75880Y726893D01*
X75851Y726745D01*
X75821Y726594D01*
X75821Y726587D01*
X75820Y726581D01*
X75829Y726429D01*
X75837Y726276D01*
X75839Y726270D01*
X75840Y726263D01*
X75887Y726118D01*
X75932Y725973D01*
X75936Y725967D01*
X75938Y725961D01*
X76020Y725831D01*
X76099Y725702D01*
X76104Y725698D01*
X76108Y725692D01*
X76219Y725587D01*
X76329Y725482D01*
X76335Y725479D01*
X76339Y725474D01*
X76473Y725401D01*
X76606Y725325D01*
X76614Y725323D01*
X76618Y725320D01*
X76628Y725318D01*
X76758Y725274D01*
X77081Y725188D01*
X77660Y724853D01*
X78133Y724380D01*
X78468Y723801D01*
X78641Y723154D01*
X78641Y720319D01*
X71830Y720319D01*
X71712Y720304D01*
X71593Y720297D01*
X71555Y720284D01*
X71515Y720279D01*
X71404Y720236D01*
X71291Y720199D01*
X71257Y720177D01*
X71219Y720162D01*
X71123Y720093D01*
X71022Y720029D01*
X70994Y719999D01*
X70962Y719976D01*
X70886Y719884D01*
X70804Y719797D01*
X70785Y719762D01*
X70759Y719731D01*
X70708Y719623D01*
X70651Y719519D01*
X70641Y719479D01*
X70623Y719443D01*
X70603Y719336D01*
X70599Y719366D01*
X70555Y719476D01*
X70519Y719589D01*
X70497Y719624D01*
X70482Y719661D01*
X70412Y719757D01*
X70349Y719858D01*
X70319Y719886D01*
X70295Y719919D01*
X70204Y719995D01*
X70117Y720076D01*
X70082Y720096D01*
X70050Y720121D01*
X69943Y720172D01*
X69838Y720230D01*
X69799Y720240D01*
X69763Y720257D01*
X69646Y720279D01*
X69530Y720309D01*
X69470Y720313D01*
X69450Y720317D01*
X69430Y720315D01*
X69370Y720319D01*
X62559Y720319D01*
X62559Y723154D01*
X62732Y723801D01*
X63067Y724380D01*
X63540Y724853D01*
X64119Y725188D01*
X64442Y725274D01*
X64584Y725332D01*
X64725Y725388D01*
X64730Y725392D01*
X64736Y725394D01*
X64858Y725485D01*
X64982Y725574D01*
X64986Y725580D01*
X64992Y725584D01*
X65086Y725701D01*
X65185Y725819D01*
X65188Y725826D01*
X65192Y725831D01*
X65255Y725968D01*
X65320Y726107D01*
X65322Y726114D01*
X65324Y726120D01*
X65352Y726271D01*
X65380Y726420D01*
X65380Y726426D01*
X65381Y726433D01*
X65370Y726583D01*
X65360Y726737D01*
X65358Y726743D01*
X65358Y726750D01*
X65309Y726896D01*
X65262Y727039D01*
X65259Y727045D01*
X65257Y727052D01*
X65173Y727180D01*
X65092Y727308D01*
X65087Y727313D01*
X65084Y727318D01*
X64972Y727421D01*
X64861Y727526D01*
X64855Y727529D01*
X64850Y727534D01*
X64716Y727606D01*
X64582Y727680D01*
X64576Y727681D01*
X64570Y727684D01*
X64421Y727721D01*
X64274Y727759D01*
X64265Y727760D01*
X64261Y727761D01*
X64259Y727761D01*
X63049Y728971D01*
X63049Y740669D01*
X64251Y741871D01*
X64740Y741871D01*
X64858Y741886D01*
X64977Y741893D01*
X65015Y741906D01*
X65056Y741911D01*
X65166Y741954D01*
X65279Y741991D01*
X65314Y742013D01*
X65351Y742028D01*
X65447Y742097D01*
X65548Y742161D01*
X65576Y742191D01*
X65609Y742214D01*
X65685Y742306D01*
X65766Y742393D01*
X65786Y742428D01*
X65811Y742459D01*
X65862Y742567D01*
X65920Y742671D01*
X65930Y742711D01*
X65947Y742747D01*
X65969Y742864D01*
X65999Y742979D01*
X66003Y743039D01*
X66007Y743059D01*
X66005Y743080D01*
X66009Y743140D01*
X66009Y755240D01*
X65997Y755338D01*
X65994Y755437D01*
X65986Y755462D01*
X65986Y755478D01*
X65975Y755510D01*
X65969Y755555D01*
X65933Y755647D01*
X65905Y755742D01*
X65893Y755763D01*
X65887Y755780D01*
X65868Y755811D01*
X65852Y755851D01*
X65794Y755931D01*
X65744Y756016D01*
X65723Y756040D01*
X65717Y756049D01*
X65703Y756062D01*
X65678Y756092D01*
X65666Y756108D01*
X65656Y756116D01*
X65638Y756137D01*
X61234Y760541D01*
X61234Y768299D01*
X66721Y773786D01*
X74479Y773786D01*
X79966Y768299D01*
X79966Y760541D01*
X75562Y756137D01*
X75502Y756059D01*
X75434Y755987D01*
X75414Y755950D01*
X75390Y755922D01*
X75382Y755904D01*
X75368Y755886D01*
X75328Y755795D01*
X75280Y755708D01*
X75269Y755665D01*
X75255Y755634D01*
X75251Y755617D01*
X75241Y755594D01*
X75226Y755496D01*
X75201Y755400D01*
X75197Y755331D01*
X75195Y755322D01*
X75195Y755312D01*
X75195Y755300D01*
X75191Y755280D01*
X75193Y755268D01*
X75191Y755240D01*
X75191Y743140D01*
X75206Y743022D01*
X75213Y742903D01*
X75226Y742865D01*
X75231Y742824D01*
X75274Y742714D01*
X75311Y742601D01*
X75333Y742566D01*
X75348Y742529D01*
X75417Y742433D01*
X75481Y742332D01*
X75511Y742304D01*
X75534Y742271D01*
X75626Y742195D01*
X75713Y742114D01*
X75748Y742094D01*
X75779Y742069D01*
X75887Y742018D01*
X75991Y741960D01*
X76031Y741950D01*
X76067Y741933D01*
X76184Y741911D01*
X76299Y741881D01*
X76359Y741877D01*
X76379Y741873D01*
X76400Y741875D01*
X76460Y741871D01*
X76949Y741871D01*
X78167Y740653D01*
X78173Y740563D01*
X78186Y740525D01*
X78191Y740484D01*
X78234Y740374D01*
X78271Y740261D01*
X78293Y740226D01*
X78308Y740189D01*
X78377Y740093D01*
X78441Y739992D01*
X78471Y739964D01*
X78494Y739931D01*
X78586Y739855D01*
X78673Y739774D01*
X78708Y739754D01*
X78739Y739729D01*
X78847Y739678D01*
X78951Y739620D01*
X78991Y739610D01*
X79027Y739593D01*
X79144Y739571D01*
X79259Y739541D01*
X79319Y739537D01*
X79339Y739533D01*
X79360Y739535D01*
X79420Y739531D01*
X95002Y739531D01*
X98062Y736470D01*
X106191Y728342D01*
X106191Y678818D01*
X35442Y608070D01*
X35382Y607992D01*
X35314Y607920D01*
X35285Y607867D01*
X35248Y607819D01*
X35208Y607728D01*
X35160Y607641D01*
X35145Y607583D01*
X35121Y607527D01*
X35106Y607429D01*
X35081Y607333D01*
X35075Y607233D01*
X35071Y607213D01*
X35073Y607201D01*
X35071Y607173D01*
X35071Y322467D01*
X35083Y322369D01*
X35086Y322270D01*
X35103Y322212D01*
X35111Y322152D01*
X35147Y322060D01*
X35175Y321965D01*
X35205Y321912D01*
X35228Y321856D01*
X35286Y321776D01*
X35336Y321691D01*
X35402Y321615D01*
X35414Y321599D01*
X35424Y321591D01*
X35442Y321570D01*
X102050Y254962D01*
X102128Y254902D01*
X102200Y254834D01*
X102253Y254805D01*
X102301Y254768D01*
X102392Y254728D01*
X102479Y254680D01*
X102537Y254665D01*
X102593Y254641D01*
X102691Y254626D01*
X102787Y254601D01*
X102887Y254595D01*
X102907Y254591D01*
X102919Y254593D01*
X102947Y254591D01*
X151902Y254591D01*
X214591Y191902D01*
X214591Y152427D01*
X214603Y152329D01*
X214606Y152230D01*
X214623Y152172D01*
X214631Y152112D01*
X214667Y152020D01*
X214695Y151925D01*
X214725Y151872D01*
X214748Y151816D01*
X214806Y151736D01*
X214856Y151651D01*
X214922Y151575D01*
X214934Y151559D01*
X214944Y151551D01*
X214962Y151530D01*
X221530Y144962D01*
X221608Y144902D01*
X221680Y144834D01*
X221733Y144805D01*
X221781Y144768D01*
X221872Y144728D01*
X221959Y144680D01*
X222017Y144665D01*
X222073Y144641D01*
X222171Y144626D01*
X222267Y144601D01*
X222367Y144595D01*
X222387Y144591D01*
X222399Y144593D01*
X222427Y144591D01*
X257573Y144591D01*
X257671Y144603D01*
X257770Y144606D01*
X257828Y144623D01*
X257888Y144631D01*
X257980Y144667D01*
X258075Y144695D01*
X258128Y144725D01*
X258184Y144748D01*
X258264Y144806D01*
X258349Y144856D01*
X258425Y144922D01*
X258441Y144934D01*
X258449Y144944D01*
X258470Y144962D01*
X260988Y147480D01*
X261048Y147558D01*
X261116Y147630D01*
X261145Y147683D01*
X261182Y147731D01*
X261222Y147822D01*
X261270Y147909D01*
X261285Y147967D01*
X261309Y148023D01*
X261324Y148121D01*
X261349Y148217D01*
X261355Y148317D01*
X261359Y148337D01*
X261357Y148349D01*
X261359Y148377D01*
X261359Y157161D01*
X261356Y157191D01*
X261358Y157220D01*
X261336Y157348D01*
X261319Y157477D01*
X261309Y157504D01*
X261304Y157534D01*
X261250Y157652D01*
X261202Y157773D01*
X261185Y157797D01*
X261173Y157824D01*
X261092Y157925D01*
X261016Y158030D01*
X260993Y158049D01*
X260974Y158072D01*
X260871Y158150D01*
X260771Y158233D01*
X260744Y158245D01*
X260720Y158263D01*
X260576Y158334D01*
X259465Y158794D01*
X256244Y162015D01*
X254441Y166369D01*
X254406Y166430D01*
X254380Y166495D01*
X254328Y166567D01*
X254283Y166645D01*
X254235Y166696D01*
X254194Y166752D01*
X254124Y166809D01*
X254062Y166874D01*
X254002Y166910D01*
X253949Y166955D01*
X253867Y166993D01*
X253791Y167040D01*
X253724Y167061D01*
X253661Y167090D01*
X253573Y167107D01*
X253487Y167134D01*
X253417Y167137D01*
X253348Y167150D01*
X253259Y167145D01*
X253169Y167149D01*
X253101Y167135D01*
X253031Y167130D01*
X252946Y167103D01*
X252858Y167085D01*
X252795Y167054D01*
X252729Y167032D01*
X252653Y166984D01*
X252572Y166945D01*
X252519Y166900D01*
X252460Y166862D01*
X252398Y166797D01*
X252330Y166739D01*
X252290Y166681D01*
X252242Y166631D01*
X252199Y166552D01*
X252147Y166478D01*
X252122Y166413D01*
X252088Y166352D01*
X252066Y166265D01*
X252034Y166181D01*
X252026Y166112D01*
X252009Y166044D01*
X251999Y165883D01*
X251999Y158253D01*
X250797Y157051D01*
X230303Y157051D01*
X229101Y158253D01*
X229101Y172931D01*
X229089Y173029D01*
X229086Y173128D01*
X229069Y173186D01*
X229061Y173246D01*
X229025Y173338D01*
X228997Y173433D01*
X228967Y173486D01*
X228944Y173542D01*
X228886Y173622D01*
X228836Y173707D01*
X228770Y173783D01*
X228758Y173799D01*
X228748Y173807D01*
X228730Y173828D01*
X228470Y174087D01*
X228470Y174088D01*
X225409Y177148D01*
X225409Y197573D01*
X225397Y197671D01*
X225394Y197770D01*
X225377Y197828D01*
X225369Y197888D01*
X225333Y197980D01*
X225305Y198075D01*
X225275Y198128D01*
X225252Y198184D01*
X225194Y198264D01*
X225144Y198349D01*
X225078Y198425D01*
X225066Y198441D01*
X225056Y198449D01*
X225038Y198470D01*
X158470Y265038D01*
X158392Y265098D01*
X158320Y265166D01*
X158267Y265195D01*
X158219Y265232D01*
X158128Y265272D01*
X158041Y265320D01*
X157983Y265335D01*
X157927Y265359D01*
X157829Y265374D01*
X157733Y265399D01*
X157633Y265405D01*
X157613Y265409D01*
X157601Y265407D01*
X157573Y265409D01*
X104018Y265409D01*
X43669Y325758D01*
X43669Y393062D01*
X54858Y404251D01*
X61770Y404251D01*
X61888Y404266D01*
X62007Y404273D01*
X62045Y404286D01*
X62086Y404291D01*
X62196Y404334D01*
X62309Y404371D01*
X62344Y404393D01*
X62381Y404408D01*
X62477Y404477D01*
X62578Y404541D01*
X62606Y404571D01*
X62639Y404594D01*
X62715Y404686D01*
X62796Y404773D01*
X62816Y404808D01*
X62841Y404839D01*
X62892Y404947D01*
X62950Y405051D01*
X62960Y405091D01*
X62977Y405127D01*
X62999Y405244D01*
X63029Y405359D01*
X63030Y405381D01*
X64241Y406591D01*
X64730Y406591D01*
X64848Y406606D01*
X64967Y406613D01*
X65005Y406626D01*
X65046Y406631D01*
X65156Y406674D01*
X65269Y406711D01*
X65304Y406733D01*
X65341Y406748D01*
X65437Y406817D01*
X65538Y406881D01*
X65566Y406911D01*
X65599Y406934D01*
X65675Y407026D01*
X65756Y407113D01*
X65776Y407148D01*
X65801Y407179D01*
X65852Y407287D01*
X65910Y407391D01*
X65920Y407431D01*
X65937Y407467D01*
X65959Y407584D01*
X65989Y407699D01*
X65993Y407759D01*
X65997Y407779D01*
X65995Y407800D01*
X65999Y407860D01*
X65999Y419960D01*
X65987Y420058D01*
X65984Y420157D01*
X65967Y420215D01*
X65959Y420275D01*
X65923Y420367D01*
X65895Y420462D01*
X65865Y420514D01*
X65842Y420571D01*
X65784Y420651D01*
X65734Y420736D01*
X65668Y420812D01*
X65656Y420828D01*
X65646Y420836D01*
X65628Y420857D01*
X61224Y425261D01*
X61224Y433019D01*
X66711Y438506D01*
X74469Y438506D01*
X79956Y433019D01*
X79956Y425261D01*
X75552Y420857D01*
X75492Y420779D01*
X75424Y420707D01*
X75395Y420654D01*
X75358Y420606D01*
X75318Y420515D01*
X75270Y420428D01*
X75255Y420370D01*
X75231Y420314D01*
X75216Y420216D01*
X75191Y420120D01*
X75185Y420020D01*
X75181Y420000D01*
X75183Y419988D01*
X75181Y419960D01*
X75181Y407860D01*
X75196Y407742D01*
X75203Y407623D01*
X75216Y407585D01*
X75221Y407544D01*
X75264Y407434D01*
X75301Y407321D01*
X75323Y407286D01*
X75338Y407249D01*
X75407Y407153D01*
X75471Y407052D01*
X75501Y407024D01*
X75524Y406991D01*
X75616Y406915D01*
X75703Y406834D01*
X75738Y406814D01*
X75769Y406789D01*
X75877Y406738D01*
X75981Y406680D01*
X76021Y406670D01*
X76057Y406653D01*
X76174Y406631D01*
X76289Y406601D01*
X76349Y406597D01*
X76369Y406593D01*
X76390Y406595D01*
X76450Y406591D01*
X76939Y406591D01*
X78141Y405389D01*
X78141Y393691D01*
X76920Y392470D01*
X76774Y392453D01*
X76768Y392450D01*
X76761Y392449D01*
X76619Y392393D01*
X76477Y392339D01*
X76472Y392335D01*
X76465Y392332D01*
X76342Y392243D01*
X76218Y392155D01*
X76213Y392150D01*
X76208Y392146D01*
X76110Y392027D01*
X76012Y391912D01*
X76010Y391906D01*
X76005Y391901D01*
X75940Y391763D01*
X75874Y391626D01*
X75872Y391619D01*
X75870Y391613D01*
X75841Y391465D01*
X75811Y391314D01*
X75811Y391307D01*
X75810Y391301D01*
X75819Y391149D01*
X75827Y390996D01*
X75829Y390990D01*
X75830Y390983D01*
X75876Y390839D01*
X75922Y390693D01*
X75926Y390687D01*
X75928Y390681D01*
X76009Y390552D01*
X76089Y390422D01*
X76094Y390418D01*
X76098Y390412D01*
X76209Y390307D01*
X76319Y390202D01*
X76325Y390199D01*
X76329Y390194D01*
X76463Y390120D01*
X76596Y390045D01*
X76604Y390043D01*
X76608Y390040D01*
X76618Y390038D01*
X76748Y389994D01*
X77071Y389908D01*
X77650Y389573D01*
X78123Y389100D01*
X78458Y388521D01*
X78631Y387874D01*
X78631Y385039D01*
X71820Y385039D01*
X71702Y385024D01*
X71583Y385017D01*
X71545Y385004D01*
X71505Y384999D01*
X71394Y384956D01*
X71281Y384919D01*
X71247Y384897D01*
X71209Y384882D01*
X71113Y384813D01*
X71012Y384749D01*
X70984Y384719D01*
X70952Y384696D01*
X70876Y384604D01*
X70794Y384517D01*
X70775Y384482D01*
X70749Y384451D01*
X70698Y384343D01*
X70641Y384239D01*
X70631Y384199D01*
X70613Y384163D01*
X70593Y384056D01*
X70589Y384086D01*
X70545Y384196D01*
X70509Y384309D01*
X70487Y384344D01*
X70472Y384381D01*
X70402Y384477D01*
X70339Y384578D01*
X70309Y384606D01*
X70285Y384639D01*
X70194Y384715D01*
X70107Y384796D01*
X70072Y384816D01*
X70040Y384841D01*
X69933Y384892D01*
X69828Y384950D01*
X69789Y384960D01*
X69753Y384977D01*
X69636Y384999D01*
X69520Y385029D01*
X69460Y385033D01*
X69440Y385037D01*
X69420Y385035D01*
X69360Y385039D01*
X62549Y385039D01*
X62549Y387874D01*
X62722Y388521D01*
X63057Y389100D01*
X63530Y389573D01*
X64109Y389908D01*
X64432Y389994D01*
X64573Y390052D01*
X64715Y390108D01*
X64720Y390112D01*
X64726Y390114D01*
X64849Y390205D01*
X64972Y390294D01*
X64976Y390300D01*
X64982Y390304D01*
X65078Y390422D01*
X65175Y390539D01*
X65178Y390546D01*
X65182Y390551D01*
X65246Y390690D01*
X65310Y390827D01*
X65312Y390834D01*
X65314Y390840D01*
X65342Y390991D01*
X65370Y391140D01*
X65370Y391146D01*
X65371Y391153D01*
X65360Y391303D01*
X65350Y391457D01*
X65348Y391463D01*
X65348Y391470D01*
X65299Y391615D01*
X65252Y391759D01*
X65249Y391765D01*
X65247Y391772D01*
X65164Y391899D01*
X65082Y392028D01*
X65077Y392033D01*
X65074Y392038D01*
X64962Y392142D01*
X64851Y392246D01*
X64845Y392249D01*
X64840Y392254D01*
X64706Y392326D01*
X64572Y392400D01*
X64566Y392401D01*
X64560Y392404D01*
X64412Y392441D01*
X64264Y392479D01*
X64255Y392480D01*
X64251Y392481D01*
X64249Y392481D01*
X63039Y393691D01*
X63039Y393800D01*
X63024Y393918D01*
X63017Y394037D01*
X63004Y394075D01*
X62999Y394116D01*
X62956Y394226D01*
X62919Y394339D01*
X62897Y394374D01*
X62882Y394411D01*
X62813Y394507D01*
X62749Y394608D01*
X62719Y394636D01*
X62696Y394669D01*
X62604Y394745D01*
X62517Y394826D01*
X62482Y394846D01*
X62451Y394871D01*
X62343Y394922D01*
X62239Y394980D01*
X62199Y394990D01*
X62163Y395007D01*
X62046Y395029D01*
X61931Y395059D01*
X61871Y395063D01*
X61851Y395067D01*
X61830Y395065D01*
X61770Y395069D01*
X59187Y395069D01*
X59089Y395057D01*
X58990Y395054D01*
X58932Y395037D01*
X58872Y395029D01*
X58780Y394993D01*
X58685Y394965D01*
X58632Y394935D01*
X58576Y394912D01*
X58496Y394854D01*
X58411Y394804D01*
X58335Y394738D01*
X58319Y394726D01*
X58311Y394716D01*
X58290Y394698D01*
X53222Y389630D01*
X53162Y389552D01*
X53094Y389480D01*
X53065Y389427D01*
X53028Y389379D01*
X52988Y389288D01*
X52940Y389201D01*
X52925Y389143D01*
X52901Y389087D01*
X52886Y388989D01*
X52861Y388893D01*
X52855Y388793D01*
X52851Y388773D01*
X52853Y388761D01*
X52851Y388733D01*
X52851Y330087D01*
X52863Y329989D01*
X52866Y329890D01*
X52883Y329832D01*
X52891Y329772D01*
X52927Y329680D01*
X52955Y329585D01*
X52985Y329532D01*
X53008Y329476D01*
X53066Y329396D01*
X53116Y329311D01*
X53182Y329235D01*
X53194Y329219D01*
X53204Y329211D01*
X53222Y329190D01*
X107450Y274962D01*
X107528Y274902D01*
X107600Y274834D01*
X107653Y274805D01*
X107701Y274768D01*
X107792Y274728D01*
X107879Y274680D01*
X107937Y274665D01*
X107993Y274641D01*
X108091Y274626D01*
X108187Y274601D01*
X108287Y274595D01*
X108307Y274591D01*
X108319Y274593D01*
X108347Y274591D01*
X161902Y274591D01*
X234591Y201902D01*
X234591Y181477D01*
X234603Y181379D01*
X234606Y181280D01*
X234623Y181222D01*
X234631Y181162D01*
X234667Y181070D01*
X234695Y180974D01*
X234725Y180922D01*
X234748Y180866D01*
X234806Y180786D01*
X234856Y180701D01*
X234922Y180625D01*
X234934Y180609D01*
X234944Y180601D01*
X234963Y180580D01*
X235222Y180320D01*
X235300Y180260D01*
X235372Y180192D01*
X235425Y180163D01*
X235473Y180126D01*
X235564Y180086D01*
X235651Y180038D01*
X235709Y180023D01*
X235765Y179999D01*
X235863Y179984D01*
X235959Y179959D01*
X236059Y179953D01*
X236079Y179949D01*
X236091Y179951D01*
X236119Y179949D01*
X250633Y179949D01*
X250703Y179957D01*
X250773Y179956D01*
X250860Y179977D01*
X250949Y179989D01*
X251014Y180014D01*
X251082Y180031D01*
X251161Y180073D01*
X251245Y180106D01*
X251301Y180147D01*
X251363Y180179D01*
X251429Y180240D01*
X251502Y180292D01*
X251547Y180346D01*
X251598Y180393D01*
X251648Y180468D01*
X251705Y180537D01*
X251735Y180601D01*
X251773Y180659D01*
X251802Y180744D01*
X251840Y180825D01*
X251853Y180894D01*
X251876Y180960D01*
X251883Y181049D01*
X251900Y181137D01*
X251896Y181207D01*
X251901Y181277D01*
X251886Y181365D01*
X251880Y181455D01*
X251859Y181521D01*
X251847Y181590D01*
X251810Y181672D01*
X251782Y181757D01*
X251745Y181816D01*
X251716Y181880D01*
X251660Y181950D01*
X251612Y182026D01*
X251561Y182074D01*
X251518Y182128D01*
X251446Y182183D01*
X251381Y182244D01*
X251320Y182278D01*
X251264Y182320D01*
X251119Y182391D01*
X246765Y184194D01*
X243544Y187415D01*
X241801Y191623D01*
X241801Y196177D01*
X243544Y200385D01*
X246765Y203606D01*
X247876Y204066D01*
X247901Y204081D01*
X247929Y204090D01*
X248039Y204159D01*
X248152Y204223D01*
X248173Y204244D01*
X248198Y204260D01*
X248287Y204354D01*
X248380Y204445D01*
X248396Y204470D01*
X248416Y204491D01*
X248479Y204605D01*
X248547Y204716D01*
X248555Y204744D01*
X248570Y204770D01*
X248602Y204895D01*
X248640Y205020D01*
X248642Y205049D01*
X248649Y205078D01*
X248659Y205239D01*
X248659Y211683D01*
X248647Y211781D01*
X248644Y211880D01*
X248627Y211938D01*
X248619Y211998D01*
X248583Y212090D01*
X248555Y212185D01*
X248525Y212238D01*
X248502Y212294D01*
X248444Y212374D01*
X248394Y212459D01*
X248328Y212535D01*
X248316Y212551D01*
X248306Y212559D01*
X248288Y212580D01*
X152889Y307978D01*
X152889Y541133D01*
X152877Y541231D01*
X152874Y541330D01*
X152857Y541388D01*
X152849Y541448D01*
X152813Y541540D01*
X152785Y541635D01*
X152755Y541688D01*
X152732Y541744D01*
X152674Y541824D01*
X152624Y541909D01*
X152558Y541985D01*
X152546Y542001D01*
X152536Y542009D01*
X152518Y542030D01*
X142370Y552178D01*
X142292Y552238D01*
X142220Y552306D01*
X142167Y552335D01*
X142119Y552372D01*
X142028Y552412D01*
X141941Y552460D01*
X141883Y552475D01*
X141827Y552499D01*
X141729Y552514D01*
X141633Y552539D01*
X141533Y552545D01*
X141513Y552549D01*
X141501Y552547D01*
X141473Y552549D01*
X80050Y552549D01*
X79932Y552534D01*
X79813Y552527D01*
X79775Y552514D01*
X79734Y552509D01*
X79624Y552466D01*
X79511Y552429D01*
X79476Y552407D01*
X79439Y552392D01*
X79343Y552323D01*
X79242Y552259D01*
X79214Y552229D01*
X79181Y552206D01*
X79105Y552114D01*
X79024Y552027D01*
X79004Y551992D01*
X78979Y551961D01*
X78928Y551853D01*
X78870Y551749D01*
X78860Y551709D01*
X78843Y551673D01*
X78821Y551556D01*
X78791Y551441D01*
X78787Y551381D01*
X78783Y551361D01*
X78785Y551340D01*
X78781Y551280D01*
X78781Y551171D01*
X77560Y549950D01*
X77414Y549933D01*
X77408Y549930D01*
X77401Y549929D01*
X77259Y549873D01*
X77117Y549819D01*
X77112Y549815D01*
X77105Y549812D01*
X76982Y549723D01*
X76858Y549635D01*
X76853Y549629D01*
X76848Y549626D01*
X76751Y549508D01*
X76652Y549392D01*
X76649Y549386D01*
X76645Y549381D01*
X76580Y549243D01*
X76514Y549106D01*
X76512Y549099D01*
X76510Y549093D01*
X76481Y548945D01*
X76451Y548794D01*
X76451Y548787D01*
X76450Y548781D01*
X76459Y548630D01*
X76467Y548476D01*
X76469Y548470D01*
X76470Y548463D01*
X76516Y548319D01*
X76562Y548173D01*
X76566Y548167D01*
X76568Y548161D01*
X76650Y548031D01*
X76729Y547902D01*
X76734Y547898D01*
X76738Y547892D01*
X76849Y547787D01*
X76959Y547682D01*
X76964Y547679D01*
X76969Y547674D01*
X77103Y547600D01*
X77236Y547525D01*
X77244Y547523D01*
X77248Y547520D01*
X77258Y547518D01*
X77388Y547474D01*
X77711Y547388D01*
X78290Y547053D01*
X78763Y546580D01*
X79098Y546001D01*
X79271Y545354D01*
X79271Y542519D01*
X72460Y542519D01*
X72342Y542504D01*
X72223Y542497D01*
X72185Y542484D01*
X72145Y542479D01*
X72034Y542436D01*
X71921Y542399D01*
X71887Y542377D01*
X71849Y542362D01*
X71753Y542293D01*
X71652Y542229D01*
X71624Y542199D01*
X71592Y542176D01*
X71516Y542084D01*
X71434Y541997D01*
X71415Y541962D01*
X71389Y541931D01*
X71338Y541823D01*
X71281Y541719D01*
X71271Y541679D01*
X71253Y541643D01*
X71233Y541536D01*
X71229Y541566D01*
X71185Y541676D01*
X71149Y541789D01*
X71127Y541824D01*
X71112Y541861D01*
X71042Y541957D01*
X70979Y542058D01*
X70949Y542086D01*
X70925Y542119D01*
X70834Y542195D01*
X70747Y542276D01*
X70712Y542296D01*
X70680Y542321D01*
X70573Y542372D01*
X70468Y542430D01*
X70429Y542440D01*
X70393Y542457D01*
X70276Y542479D01*
X70160Y542509D01*
X70100Y542513D01*
X70080Y542517D01*
X70060Y542515D01*
X70000Y542519D01*
X63189Y542519D01*
X63189Y545354D01*
X63362Y546001D01*
X63697Y546580D01*
X64170Y547053D01*
X64749Y547388D01*
X65072Y547474D01*
X65213Y547532D01*
X65355Y547588D01*
X65360Y547592D01*
X65366Y547594D01*
X65488Y547684D01*
X65612Y547774D01*
X65616Y547780D01*
X65622Y547784D01*
X65716Y547900D01*
X65815Y548019D01*
X65818Y548026D01*
X65822Y548031D01*
X65886Y548170D01*
X65950Y548307D01*
X65952Y548314D01*
X65954Y548320D01*
X65982Y548471D01*
X66010Y548620D01*
X66010Y548626D01*
X66011Y548633D01*
X66000Y548783D01*
X65990Y548937D01*
X65988Y548943D01*
X65988Y548950D01*
X65939Y549094D01*
X65892Y549239D01*
X65889Y549245D01*
X65887Y549252D01*
X65805Y549378D01*
X65722Y549508D01*
X65717Y549513D01*
X65714Y549518D01*
X65602Y549622D01*
X65491Y549726D01*
X65485Y549729D01*
X65480Y549734D01*
X65346Y549806D01*
X65212Y549880D01*
X65206Y549881D01*
X65200Y549884D01*
X65052Y549921D01*
X64904Y549959D01*
X64895Y549960D01*
X64891Y549961D01*
X64889Y549961D01*
X63679Y551171D01*
X63679Y562869D01*
X64881Y564071D01*
X65370Y564071D01*
X65488Y564086D01*
X65607Y564093D01*
X65645Y564106D01*
X65686Y564111D01*
X65796Y564154D01*
X65909Y564191D01*
X65944Y564213D01*
X65981Y564228D01*
X66077Y564297D01*
X66178Y564361D01*
X66206Y564391D01*
X66239Y564414D01*
X66315Y564506D01*
X66396Y564593D01*
X66416Y564628D01*
X66441Y564659D01*
X66492Y564767D01*
X66550Y564871D01*
X66560Y564911D01*
X66577Y564947D01*
X66599Y565064D01*
X66629Y565179D01*
X66633Y565239D01*
X66637Y565259D01*
X66635Y565280D01*
X66639Y565340D01*
X66639Y577440D01*
X66627Y577538D01*
X66624Y577637D01*
X66607Y577695D01*
X66599Y577755D01*
X66563Y577847D01*
X66535Y577942D01*
X66505Y577994D01*
X66482Y578051D01*
X66424Y578131D01*
X66374Y578216D01*
X66308Y578292D01*
X66296Y578308D01*
X66286Y578316D01*
X66268Y578337D01*
X61864Y582741D01*
X61864Y590499D01*
X67351Y595986D01*
X75109Y595986D01*
X80596Y590499D01*
X80596Y582741D01*
X76192Y578337D01*
X76132Y578259D01*
X76064Y578187D01*
X76035Y578134D01*
X75998Y578086D01*
X75958Y577995D01*
X75910Y577908D01*
X75895Y577850D01*
X75871Y577794D01*
X75856Y577696D01*
X75831Y577600D01*
X75825Y577500D01*
X75821Y577480D01*
X75823Y577468D01*
X75821Y577440D01*
X75821Y565340D01*
X75836Y565222D01*
X75843Y565103D01*
X75856Y565065D01*
X75861Y565024D01*
X75904Y564914D01*
X75941Y564801D01*
X75963Y564766D01*
X75978Y564729D01*
X76047Y564633D01*
X76111Y564532D01*
X76141Y564504D01*
X76164Y564471D01*
X76256Y564395D01*
X76343Y564314D01*
X76378Y564294D01*
X76409Y564269D01*
X76517Y564218D01*
X76621Y564160D01*
X76661Y564150D01*
X76697Y564133D01*
X76814Y564111D01*
X76929Y564081D01*
X76989Y564077D01*
X77009Y564073D01*
X77030Y564075D01*
X77090Y564071D01*
X77579Y564071D01*
X78797Y562853D01*
X78803Y562763D01*
X78816Y562725D01*
X78821Y562684D01*
X78864Y562574D01*
X78901Y562461D01*
X78923Y562426D01*
X78938Y562389D01*
X79007Y562293D01*
X79071Y562192D01*
X79101Y562164D01*
X79124Y562131D01*
X79216Y562055D01*
X79303Y561974D01*
X79338Y561954D01*
X79369Y561929D01*
X79477Y561878D01*
X79581Y561820D01*
X79621Y561810D01*
X79657Y561793D01*
X79774Y561771D01*
X79889Y561741D01*
X79949Y561737D01*
X79969Y561733D01*
X79990Y561735D01*
X80050Y561731D01*
X145802Y561731D01*
X148862Y558670D01*
X159010Y548522D01*
X162071Y545462D01*
X162071Y312307D01*
X162083Y312209D01*
X162086Y312110D01*
X162103Y312052D01*
X162111Y311992D01*
X162147Y311900D01*
X162175Y311805D01*
X162205Y311752D01*
X162228Y311696D01*
X162286Y311616D01*
X162336Y311531D01*
X162402Y311455D01*
X162414Y311439D01*
X162424Y311431D01*
X162442Y311410D01*
X257841Y216012D01*
X257841Y205239D01*
X257844Y205209D01*
X257842Y205180D01*
X257864Y205052D01*
X257881Y204923D01*
X257891Y204896D01*
X257896Y204866D01*
X257950Y204748D01*
X257998Y204627D01*
X258015Y204603D01*
X258027Y204576D01*
X258108Y204475D01*
X258184Y204370D01*
X258207Y204351D01*
X258226Y204328D01*
X258329Y204250D01*
X258429Y204167D01*
X258456Y204155D01*
X258480Y204137D01*
X258624Y204066D01*
X259735Y203606D01*
X262956Y200385D01*
X264777Y195987D01*
X264846Y195867D01*
X264911Y195744D01*
X264925Y195729D01*
X264935Y195711D01*
X265032Y195611D01*
X265125Y195508D01*
X265142Y195497D01*
X265156Y195483D01*
X265274Y195410D01*
X265391Y195334D01*
X265410Y195327D01*
X265427Y195317D01*
X265560Y195276D01*
X265692Y195230D01*
X265712Y195229D01*
X265731Y195223D01*
X265870Y195216D01*
X266009Y195205D01*
X266029Y195209D01*
X266049Y195208D01*
X266185Y195236D01*
X266322Y195260D01*
X266341Y195268D01*
X266360Y195272D01*
X266485Y195333D01*
X266612Y195390D01*
X266628Y195403D01*
X266646Y195412D01*
X266752Y195502D01*
X266860Y195589D01*
X266873Y195605D01*
X266888Y195618D01*
X266968Y195732D01*
X267052Y195843D01*
X267064Y195868D01*
X267071Y195878D01*
X267078Y195897D01*
X267123Y195987D01*
X268944Y200385D01*
X269877Y201318D01*
X269938Y201397D01*
X270006Y201469D01*
X270035Y201522D01*
X270072Y201570D01*
X270112Y201661D01*
X270160Y201747D01*
X270175Y201806D01*
X270199Y201862D01*
X270214Y201960D01*
X270239Y202055D01*
X270245Y202155D01*
X270249Y202176D01*
X270247Y202188D01*
X270249Y202216D01*
X270249Y230321D01*
X271528Y233409D01*
X324641Y286522D01*
X327729Y287801D01*
X377530Y287801D01*
X377648Y287816D01*
X377767Y287823D01*
X377805Y287836D01*
X377846Y287841D01*
X377956Y287884D01*
X378069Y287921D01*
X378104Y287943D01*
X378141Y287958D01*
X378237Y288027D01*
X378338Y288091D01*
X378366Y288121D01*
X378399Y288144D01*
X378475Y288236D01*
X378556Y288323D01*
X378576Y288358D01*
X378601Y288389D01*
X378652Y288497D01*
X378710Y288601D01*
X378720Y288641D01*
X378737Y288677D01*
X378759Y288794D01*
X378789Y288909D01*
X378793Y288969D01*
X378797Y288989D01*
X378795Y289010D01*
X378796Y289021D01*
X380001Y290226D01*
X380832Y290226D01*
X380950Y290241D01*
X381069Y290248D01*
X381107Y290261D01*
X381148Y290266D01*
X381258Y290309D01*
X381371Y290346D01*
X381406Y290368D01*
X381443Y290383D01*
X381539Y290452D01*
X381640Y290516D01*
X381668Y290546D01*
X381701Y290569D01*
X381777Y290661D01*
X381858Y290748D01*
X381878Y290783D01*
X381903Y290814D01*
X381954Y290922D01*
X382012Y291026D01*
X382022Y291066D01*
X382039Y291102D01*
X382061Y291219D01*
X382091Y291334D01*
X382095Y291394D01*
X382099Y291414D01*
X382097Y291435D01*
X382101Y291495D01*
X382101Y292860D01*
X382086Y292978D01*
X382079Y293097D01*
X382066Y293135D01*
X382061Y293176D01*
X382018Y293286D01*
X381981Y293399D01*
X381959Y293434D01*
X381944Y293471D01*
X381875Y293567D01*
X381811Y293668D01*
X381781Y293696D01*
X381758Y293729D01*
X381666Y293805D01*
X381579Y293886D01*
X381544Y293906D01*
X381513Y293931D01*
X381405Y293982D01*
X381301Y294040D01*
X381261Y294050D01*
X381225Y294067D01*
X381108Y294089D01*
X380993Y294119D01*
X380933Y294123D01*
X380913Y294127D01*
X380892Y294125D01*
X380832Y294129D01*
X193569Y294129D01*
X193569Y830000D01*
X193554Y830118D01*
X193547Y830237D01*
X193534Y830275D01*
X193529Y830316D01*
X193486Y830426D01*
X193449Y830539D01*
X193427Y830574D01*
X193412Y830611D01*
X193343Y830707D01*
X193279Y830808D01*
X193249Y830836D01*
X193226Y830869D01*
X193134Y830945D01*
X193047Y831026D01*
X193012Y831046D01*
X192981Y831071D01*
X192873Y831122D01*
X192769Y831180D01*
X192729Y831190D01*
X192693Y831207D01*
X192576Y831229D01*
X192461Y831259D01*
X192401Y831263D01*
X192381Y831267D01*
X192360Y831265D01*
X192300Y831269D01*
X3270Y831269D01*
X3152Y831254D01*
X3033Y831247D01*
X2995Y831234D01*
X2954Y831229D01*
X2844Y831186D01*
X2731Y831149D01*
X2696Y831127D01*
X2659Y831112D01*
X2563Y831043D01*
X2462Y830979D01*
X2434Y830949D01*
X2401Y830926D01*
X2325Y830834D01*
X2244Y830747D01*
X2224Y830712D01*
X2199Y830681D01*
X2148Y830573D01*
X2090Y830469D01*
X2080Y830429D01*
X2063Y830393D01*
X2041Y830276D01*
X2011Y830161D01*
X2007Y830101D01*
X2003Y830081D01*
X2005Y830060D01*
X2001Y830000D01*
X2001Y113270D01*
X2016Y113152D01*
X2023Y113033D01*
X2036Y112995D01*
X2041Y112954D01*
X2084Y112844D01*
X2121Y112731D01*
X2143Y112696D01*
X2158Y112659D01*
X2227Y112563D01*
X2291Y112462D01*
X2321Y112434D01*
X2344Y112401D01*
X2436Y112325D01*
X2523Y112244D01*
X2558Y112224D01*
X2589Y112199D01*
X2697Y112148D01*
X2801Y112090D01*
X2841Y112080D01*
X2877Y112063D01*
X2994Y112041D01*
X3109Y112011D01*
X3169Y112007D01*
X3189Y112003D01*
X3210Y112005D01*
X3270Y112001D01*
X110829Y112001D01*
X112001Y110829D01*
X112001Y80000D01*
X112016Y79882D01*
X112023Y79763D01*
X112036Y79725D01*
X112041Y79684D01*
X112084Y79574D01*
X112121Y79461D01*
X112143Y79426D01*
X112158Y79389D01*
X112227Y79293D01*
X112291Y79192D01*
X112321Y79164D01*
X112344Y79131D01*
X112436Y79056D01*
X112523Y78974D01*
X112558Y78954D01*
X112589Y78929D01*
X112697Y78878D01*
X112801Y78820D01*
X112841Y78810D01*
X112877Y78793D01*
X112994Y78771D01*
X113109Y78741D01*
X113169Y78737D01*
X113189Y78733D01*
X113210Y78735D01*
X113270Y78731D01*
X154162Y78731D01*
X154261Y78743D01*
G37*
G36*
X565053Y226853D02*
X565053Y226853D01*
X565152Y226856D01*
X565210Y226873D01*
X565270Y226881D01*
X565362Y226917D01*
X565457Y226945D01*
X565509Y226975D01*
X565566Y226998D01*
X565646Y227056D01*
X565731Y227106D01*
X565807Y227172D01*
X565823Y227184D01*
X565831Y227194D01*
X565852Y227212D01*
X630602Y291963D01*
X630687Y292072D01*
X630776Y292179D01*
X630785Y292198D01*
X630797Y292214D01*
X630852Y292342D01*
X630911Y292467D01*
X630915Y292487D01*
X630923Y292506D01*
X630945Y292644D01*
X630971Y292780D01*
X630970Y292800D01*
X630973Y292820D01*
X630960Y292959D01*
X630952Y293097D01*
X630945Y293116D01*
X630943Y293136D01*
X630896Y293268D01*
X630853Y293399D01*
X630843Y293417D01*
X630836Y293436D01*
X630758Y293551D01*
X630683Y293668D01*
X630669Y293682D01*
X630657Y293699D01*
X630553Y293791D01*
X630452Y293886D01*
X630434Y293896D01*
X630419Y293909D01*
X630295Y293972D01*
X630173Y294040D01*
X630154Y294045D01*
X630136Y294054D01*
X630000Y294084D01*
X629865Y294119D01*
X629837Y294121D01*
X629825Y294124D01*
X629805Y294123D01*
X629705Y294129D01*
X462168Y294129D01*
X462050Y294114D01*
X461931Y294107D01*
X461893Y294094D01*
X461852Y294089D01*
X461742Y294046D01*
X461629Y294009D01*
X461594Y293987D01*
X461557Y293972D01*
X461461Y293903D01*
X461360Y293839D01*
X461332Y293809D01*
X461299Y293786D01*
X461223Y293694D01*
X461142Y293607D01*
X461122Y293572D01*
X461097Y293541D01*
X461046Y293433D01*
X460988Y293329D01*
X460978Y293289D01*
X460961Y293253D01*
X460939Y293136D01*
X460909Y293021D01*
X460905Y292961D01*
X460901Y292941D01*
X460903Y292920D01*
X460899Y292860D01*
X460899Y291495D01*
X460914Y291377D01*
X460921Y291258D01*
X460934Y291220D01*
X460939Y291179D01*
X460982Y291069D01*
X461019Y290956D01*
X461041Y290921D01*
X461056Y290884D01*
X461125Y290788D01*
X461189Y290687D01*
X461219Y290659D01*
X461242Y290626D01*
X461334Y290550D01*
X461421Y290469D01*
X461456Y290449D01*
X461487Y290424D01*
X461595Y290373D01*
X461699Y290315D01*
X461739Y290305D01*
X461775Y290288D01*
X461892Y290266D01*
X462007Y290236D01*
X462067Y290232D01*
X462087Y290228D01*
X462108Y290230D01*
X462168Y290226D01*
X462999Y290226D01*
X464201Y289024D01*
X464201Y283280D01*
X464213Y283182D01*
X464216Y283083D01*
X464233Y283025D01*
X464241Y282965D01*
X464277Y282873D01*
X464305Y282778D01*
X464335Y282726D01*
X464358Y282669D01*
X464416Y282589D01*
X464466Y282504D01*
X464532Y282428D01*
X464544Y282412D01*
X464554Y282404D01*
X464572Y282383D01*
X519743Y227212D01*
X519821Y227152D01*
X519893Y227084D01*
X519946Y227055D01*
X519994Y227018D01*
X520085Y226978D01*
X520172Y226930D01*
X520230Y226915D01*
X520286Y226891D01*
X520384Y226876D01*
X520480Y226851D01*
X520580Y226845D01*
X520600Y226841D01*
X520612Y226843D01*
X520640Y226841D01*
X564955Y226841D01*
X565053Y226853D01*
G37*
%LPC*%
G36*
X338569Y86999D02*
X338569Y86999D01*
X331953Y89740D01*
X326890Y94803D01*
X324149Y101419D01*
X324149Y108581D01*
X326890Y115197D01*
X331953Y120260D01*
X338569Y123001D01*
X345731Y123001D01*
X352347Y120260D01*
X357410Y115197D01*
X359952Y109059D01*
X359987Y108999D01*
X360013Y108934D01*
X360065Y108861D01*
X360110Y108783D01*
X360159Y108733D01*
X360199Y108677D01*
X360269Y108619D01*
X360331Y108555D01*
X360391Y108518D01*
X360405Y108507D01*
X360394Y108495D01*
X360387Y108484D01*
X360378Y108474D01*
X360310Y108344D01*
X360240Y108217D01*
X360237Y108204D01*
X360231Y108192D01*
X360197Y108049D01*
X360161Y107909D01*
X360160Y107891D01*
X360158Y107882D01*
X360158Y107865D01*
X360151Y107748D01*
X360151Y101419D01*
X357410Y94803D01*
X352347Y89740D01*
X345731Y86999D01*
X338569Y86999D01*
G37*
%LPD*%
%LPC*%
G36*
X224269Y86999D02*
X224269Y86999D01*
X217653Y89740D01*
X212590Y94803D01*
X209849Y101419D01*
X209849Y108581D01*
X212590Y115197D01*
X217653Y120260D01*
X224269Y123001D01*
X231431Y123001D01*
X238047Y120260D01*
X243110Y115197D01*
X245851Y108581D01*
X245851Y101419D01*
X243110Y94803D01*
X238047Y89740D01*
X231431Y86999D01*
X224269Y86999D01*
G37*
%LPD*%
%LPC*%
G36*
X123751Y155424D02*
X123751Y155424D01*
X122549Y156626D01*
X122549Y178124D01*
X123751Y179326D01*
X145249Y179326D01*
X146451Y178124D01*
X146451Y156626D01*
X145249Y155424D01*
X123751Y155424D01*
G37*
%LPD*%
%LPC*%
G36*
X132123Y205424D02*
X132123Y205424D01*
X127730Y207244D01*
X124369Y210605D01*
X122549Y214998D01*
X122549Y219752D01*
X124369Y224145D01*
X127730Y227506D01*
X132123Y229326D01*
X136877Y229326D01*
X141270Y227506D01*
X144631Y224145D01*
X146451Y219752D01*
X146451Y214998D01*
X144631Y210605D01*
X141270Y207244D01*
X136877Y205424D01*
X132123Y205424D01*
G37*
%LPD*%
%LPC*%
G36*
X131722Y783269D02*
X131722Y783269D01*
X127660Y784952D01*
X124552Y788060D01*
X122869Y792122D01*
X122869Y796518D01*
X124552Y800580D01*
X127660Y803688D01*
X131722Y805371D01*
X136118Y805371D01*
X140180Y803688D01*
X143288Y800580D01*
X144971Y796518D01*
X144971Y792122D01*
X143288Y788060D01*
X140180Y784952D01*
X136118Y783269D01*
X131722Y783269D01*
G37*
%LPD*%
%LPC*%
G36*
X131722Y605149D02*
X131722Y605149D01*
X127660Y606832D01*
X124552Y609940D01*
X122869Y614002D01*
X122869Y618398D01*
X124552Y622460D01*
X127660Y625568D01*
X131722Y627251D01*
X136118Y627251D01*
X140180Y625568D01*
X143288Y622460D01*
X144971Y618398D01*
X144971Y614002D01*
X143288Y609940D01*
X140180Y606832D01*
X136118Y605149D01*
X131722Y605149D01*
G37*
%LPD*%
%LPC*%
G36*
X131722Y437189D02*
X131722Y437189D01*
X127660Y438872D01*
X124552Y441980D01*
X122869Y446042D01*
X122869Y450438D01*
X124552Y454500D01*
X127660Y457608D01*
X131722Y459291D01*
X136118Y459291D01*
X140180Y457608D01*
X143288Y454500D01*
X144971Y450438D01*
X144971Y446042D01*
X143288Y441980D01*
X140180Y438872D01*
X136118Y437189D01*
X131722Y437189D01*
G37*
%LPD*%
%LPC*%
G36*
X697389Y152279D02*
X697389Y152279D01*
X697389Y165585D01*
X697986Y165506D01*
X700017Y164962D01*
X701960Y164157D01*
X703781Y163106D01*
X705449Y161826D01*
X706936Y160339D01*
X708216Y158671D01*
X709267Y156850D01*
X710072Y154907D01*
X710616Y152876D01*
X710695Y152279D01*
X697389Y152279D01*
G37*
%LPD*%
%LPC*%
G36*
X679005Y152279D02*
X679005Y152279D01*
X679084Y152876D01*
X679628Y154907D01*
X680433Y156850D01*
X681484Y158671D01*
X682764Y160339D01*
X684251Y161826D01*
X685919Y163106D01*
X687740Y164157D01*
X689683Y164962D01*
X691714Y165506D01*
X692311Y165585D01*
X692311Y152279D01*
X679005Y152279D01*
G37*
%LPD*%
%LPC*%
G36*
X697389Y147201D02*
X697389Y147201D01*
X710695Y147201D01*
X710616Y146604D01*
X710072Y144573D01*
X709267Y142630D01*
X708216Y140809D01*
X706936Y139141D01*
X705449Y137654D01*
X703781Y136374D01*
X701960Y135323D01*
X700017Y134518D01*
X697986Y133974D01*
X697389Y133895D01*
X697389Y147201D01*
G37*
%LPD*%
%LPC*%
G36*
X691714Y133974D02*
X691714Y133974D01*
X689683Y134518D01*
X687740Y135323D01*
X685919Y136374D01*
X684251Y137654D01*
X682764Y139141D01*
X681484Y140809D01*
X680433Y142630D01*
X679628Y144573D01*
X679084Y146604D01*
X679005Y147201D01*
X692311Y147201D01*
X692311Y133895D01*
X691714Y133974D01*
G37*
%LPD*%
%LPC*%
G36*
X398619Y172579D02*
X398619Y172579D01*
X398619Y183331D01*
X407414Y183331D01*
X408061Y183158D01*
X408640Y182823D01*
X409113Y182350D01*
X409448Y181771D01*
X409621Y181124D01*
X409621Y172579D01*
X398619Y172579D01*
G37*
%LPD*%
%LPC*%
G36*
X382539Y172579D02*
X382539Y172579D01*
X382539Y181124D01*
X382712Y181771D01*
X383047Y182350D01*
X383520Y182823D01*
X384099Y183158D01*
X384746Y183331D01*
X393541Y183331D01*
X393541Y172579D01*
X382539Y172579D01*
G37*
%LPD*%
%LPC*%
G36*
X398619Y156749D02*
X398619Y156749D01*
X398619Y167501D01*
X409621Y167501D01*
X409621Y158956D01*
X409448Y158309D01*
X409113Y157730D01*
X408640Y157257D01*
X408061Y156922D01*
X407414Y156749D01*
X398619Y156749D01*
G37*
%LPD*%
%LPC*%
G36*
X384746Y156749D02*
X384746Y156749D01*
X384099Y156922D01*
X383520Y157257D01*
X383047Y157730D01*
X382712Y158309D01*
X382539Y158956D01*
X382539Y167501D01*
X393541Y167501D01*
X393541Y156749D01*
X384746Y156749D01*
G37*
%LPD*%
%LPC*%
G36*
X364601Y106739D02*
X364601Y106739D01*
X363954Y106912D01*
X363375Y107247D01*
X362902Y107720D01*
X362519Y108383D01*
X362431Y108499D01*
X362346Y108617D01*
X362335Y108625D01*
X362327Y108636D01*
X362213Y108727D01*
X362140Y108787D01*
X362151Y108798D01*
X362194Y108877D01*
X362246Y108950D01*
X362271Y109015D01*
X362305Y109076D01*
X362327Y109163D01*
X362359Y109248D01*
X362367Y109317D01*
X362384Y109384D01*
X362394Y109545D01*
X362394Y113091D01*
X375096Y113091D01*
X375096Y106739D01*
X364601Y106739D01*
G37*
%LPD*%
%LPC*%
G36*
X380174Y118169D02*
X380174Y118169D01*
X380174Y124521D01*
X390669Y124521D01*
X391316Y124348D01*
X391895Y124013D01*
X392368Y123540D01*
X392703Y122961D01*
X392876Y122314D01*
X392876Y118169D01*
X380174Y118169D01*
G37*
%LPD*%
%LPC*%
G36*
X362394Y118169D02*
X362394Y118169D01*
X362394Y122314D01*
X362567Y122961D01*
X362902Y123540D01*
X363375Y124013D01*
X363954Y124348D01*
X364601Y124521D01*
X375096Y124521D01*
X375096Y118169D01*
X362394Y118169D01*
G37*
%LPD*%
%LPC*%
G36*
X380174Y106739D02*
X380174Y106739D01*
X380174Y113091D01*
X392876Y113091D01*
X392876Y108946D01*
X392703Y108299D01*
X392368Y107720D01*
X391895Y107247D01*
X391316Y106912D01*
X390669Y106739D01*
X380174Y106739D01*
G37*
%LPD*%
%LPC*%
G36*
X458339Y231014D02*
X458339Y231014D01*
X458339Y239916D01*
X462484Y239916D01*
X463131Y239743D01*
X463710Y239408D01*
X464183Y238935D01*
X464518Y238356D01*
X464691Y237709D01*
X464691Y231014D01*
X458339Y231014D01*
G37*
%LPD*%
%LPC*%
G36*
X458339Y217034D02*
X458339Y217034D01*
X458339Y225936D01*
X464691Y225936D01*
X464691Y219241D01*
X464518Y218594D01*
X464183Y218015D01*
X463710Y217542D01*
X463131Y217207D01*
X462484Y217034D01*
X458339Y217034D01*
G37*
%LPD*%
%LPC*%
G36*
X446909Y231014D02*
X446909Y231014D01*
X446909Y237709D01*
X447082Y238356D01*
X447417Y238935D01*
X447890Y239408D01*
X448469Y239743D01*
X449116Y239916D01*
X453261Y239916D01*
X453261Y231014D01*
X446909Y231014D01*
G37*
%LPD*%
%LPC*%
G36*
X449116Y217034D02*
X449116Y217034D01*
X448469Y217207D01*
X447890Y217542D01*
X447417Y218015D01*
X447082Y218594D01*
X446909Y219241D01*
X446909Y225936D01*
X453261Y225936D01*
X453261Y217034D01*
X449116Y217034D01*
G37*
%LPD*%
%LPC*%
G36*
X136419Y491699D02*
X136419Y491699D01*
X136419Y500489D01*
X136623Y500457D01*
X138350Y499895D01*
X139969Y499071D01*
X141438Y498003D01*
X142723Y496718D01*
X143791Y495249D01*
X144615Y493630D01*
X145177Y491903D01*
X145209Y491699D01*
X136419Y491699D01*
G37*
%LPD*%
%LPC*%
G36*
X136419Y669819D02*
X136419Y669819D01*
X136419Y678609D01*
X136623Y678577D01*
X138350Y678015D01*
X139969Y677191D01*
X141438Y676123D01*
X142723Y674838D01*
X143791Y673369D01*
X144615Y671750D01*
X145177Y670023D01*
X145209Y669819D01*
X136419Y669819D01*
G37*
%LPD*%
%LPC*%
G36*
X136419Y323739D02*
X136419Y323739D01*
X136419Y332529D01*
X136623Y332497D01*
X138350Y331935D01*
X139969Y331111D01*
X141438Y330043D01*
X142723Y328758D01*
X143791Y327289D01*
X144615Y325670D01*
X145177Y323943D01*
X145209Y323739D01*
X136419Y323739D01*
G37*
%LPD*%
%LPC*%
G36*
X122631Y323739D02*
X122631Y323739D01*
X122663Y323943D01*
X123225Y325670D01*
X124049Y327289D01*
X125117Y328758D01*
X126402Y330043D01*
X127871Y331111D01*
X129490Y331935D01*
X131217Y332497D01*
X131421Y332529D01*
X131421Y323739D01*
X122631Y323739D01*
G37*
%LPD*%
%LPC*%
G36*
X136419Y664821D02*
X136419Y664821D01*
X145209Y664821D01*
X145177Y664617D01*
X144615Y662890D01*
X143791Y661271D01*
X142723Y659802D01*
X141438Y658517D01*
X139969Y657449D01*
X138350Y656625D01*
X136623Y656063D01*
X136419Y656031D01*
X136419Y664821D01*
G37*
%LPD*%
%LPC*%
G36*
X122631Y669819D02*
X122631Y669819D01*
X122663Y670023D01*
X123225Y671750D01*
X124049Y673369D01*
X125117Y674838D01*
X126402Y676123D01*
X127871Y677191D01*
X129490Y678015D01*
X131217Y678577D01*
X131421Y678609D01*
X131421Y669819D01*
X122631Y669819D01*
G37*
%LPD*%
%LPC*%
G36*
X136419Y318741D02*
X136419Y318741D01*
X145209Y318741D01*
X145177Y318537D01*
X144615Y316810D01*
X143791Y315191D01*
X142723Y313722D01*
X141438Y312437D01*
X139969Y311369D01*
X138350Y310545D01*
X136623Y309983D01*
X136419Y309951D01*
X136419Y318741D01*
G37*
%LPD*%
%LPC*%
G36*
X122631Y491699D02*
X122631Y491699D01*
X122663Y491903D01*
X123225Y493630D01*
X124049Y495249D01*
X125117Y496718D01*
X126402Y498003D01*
X127871Y499071D01*
X129490Y499895D01*
X131217Y500457D01*
X131421Y500489D01*
X131421Y491699D01*
X122631Y491699D01*
G37*
%LPD*%
%LPC*%
G36*
X136419Y486701D02*
X136419Y486701D01*
X145209Y486701D01*
X145177Y486497D01*
X144615Y484770D01*
X143791Y483151D01*
X142723Y481682D01*
X141438Y480397D01*
X139969Y479329D01*
X138350Y478505D01*
X136623Y477943D01*
X136419Y477911D01*
X136419Y486701D01*
G37*
%LPD*%
%LPC*%
G36*
X131217Y477943D02*
X131217Y477943D01*
X129490Y478505D01*
X127871Y479329D01*
X126402Y480397D01*
X125117Y481682D01*
X124049Y483151D01*
X123225Y484770D01*
X122663Y486497D01*
X122631Y486701D01*
X131421Y486701D01*
X131421Y477911D01*
X131217Y477943D01*
G37*
%LPD*%
%LPC*%
G36*
X131217Y309983D02*
X131217Y309983D01*
X129490Y310545D01*
X127871Y311369D01*
X126402Y312437D01*
X125117Y313722D01*
X124049Y315191D01*
X123225Y316810D01*
X122663Y318537D01*
X122631Y318741D01*
X131421Y318741D01*
X131421Y309951D01*
X131217Y309983D01*
G37*
%LPD*%
%LPC*%
G36*
X131217Y656063D02*
X131217Y656063D01*
X129490Y656625D01*
X127871Y657449D01*
X126402Y658517D01*
X125117Y659802D01*
X124049Y661271D01*
X123225Y662890D01*
X122663Y664617D01*
X122631Y664821D01*
X131421Y664821D01*
X131421Y656031D01*
X131217Y656063D01*
G37*
%LPD*%
%LPC*%
G36*
X72631Y690251D02*
X72631Y690251D01*
X72631Y698076D01*
X74682Y698076D01*
X80456Y692302D01*
X80456Y690251D01*
X72631Y690251D01*
G37*
%LPD*%
%LPC*%
G36*
X73261Y512451D02*
X73261Y512451D01*
X73261Y520276D01*
X75312Y520276D01*
X81086Y514502D01*
X81086Y512451D01*
X73261Y512451D01*
G37*
%LPD*%
%LPC*%
G36*
X72621Y354971D02*
X72621Y354971D01*
X72621Y362796D01*
X74672Y362796D01*
X80446Y357022D01*
X80446Y354971D01*
X72621Y354971D01*
G37*
%LPD*%
%LPC*%
G36*
X72621Y350909D02*
X72621Y350909D01*
X80446Y350909D01*
X80446Y348858D01*
X74672Y343084D01*
X72621Y343084D01*
X72621Y350909D01*
G37*
%LPD*%
%LPC*%
G36*
X60734Y354971D02*
X60734Y354971D01*
X60734Y357022D01*
X66508Y362796D01*
X68559Y362796D01*
X68559Y354971D01*
X60734Y354971D01*
G37*
%LPD*%
%LPC*%
G36*
X61374Y512451D02*
X61374Y512451D01*
X61374Y514502D01*
X67148Y520276D01*
X69199Y520276D01*
X69199Y512451D01*
X61374Y512451D01*
G37*
%LPD*%
%LPC*%
G36*
X60744Y690251D02*
X60744Y690251D01*
X60744Y692302D01*
X66518Y698076D01*
X68569Y698076D01*
X68569Y690251D01*
X60744Y690251D01*
G37*
%LPD*%
%LPC*%
G36*
X72631Y678364D02*
X72631Y678364D01*
X72631Y686189D01*
X80456Y686189D01*
X80456Y684138D01*
X74682Y678364D01*
X72631Y678364D01*
G37*
%LPD*%
%LPC*%
G36*
X73261Y500564D02*
X73261Y500564D01*
X73261Y508389D01*
X81086Y508389D01*
X81086Y506338D01*
X75312Y500564D01*
X73261Y500564D01*
G37*
%LPD*%
%LPC*%
G36*
X66518Y678364D02*
X66518Y678364D01*
X60744Y684138D01*
X60744Y686189D01*
X68569Y686189D01*
X68569Y678364D01*
X66518Y678364D01*
G37*
%LPD*%
%LPC*%
G36*
X67148Y500564D02*
X67148Y500564D01*
X61374Y506338D01*
X61374Y508389D01*
X69199Y508389D01*
X69199Y500564D01*
X67148Y500564D01*
G37*
%LPD*%
%LPC*%
G36*
X66508Y343084D02*
X66508Y343084D01*
X60734Y348858D01*
X60734Y350909D01*
X68559Y350909D01*
X68559Y343084D01*
X66508Y343084D01*
G37*
%LPD*%
%LPC*%
G36*
X73099Y710279D02*
X73099Y710279D01*
X73099Y715321D01*
X78641Y715321D01*
X78641Y712486D01*
X78468Y711839D01*
X78133Y711260D01*
X77660Y710787D01*
X77081Y710452D01*
X76434Y710279D01*
X73099Y710279D01*
G37*
%LPD*%
%LPC*%
G36*
X73729Y532479D02*
X73729Y532479D01*
X73729Y537521D01*
X79271Y537521D01*
X79271Y534686D01*
X79098Y534039D01*
X78763Y533460D01*
X78290Y532987D01*
X77711Y532652D01*
X77064Y532479D01*
X73729Y532479D01*
G37*
%LPD*%
%LPC*%
G36*
X73089Y374999D02*
X73089Y374999D01*
X73089Y380041D01*
X78631Y380041D01*
X78631Y377206D01*
X78458Y376559D01*
X78123Y375980D01*
X77650Y375507D01*
X77071Y375172D01*
X76424Y374999D01*
X73089Y374999D01*
G37*
%LPD*%
%LPC*%
G36*
X64756Y374999D02*
X64756Y374999D01*
X64109Y375172D01*
X63530Y375507D01*
X63057Y375980D01*
X62722Y376559D01*
X62549Y377206D01*
X62549Y380041D01*
X68091Y380041D01*
X68091Y374999D01*
X64756Y374999D01*
G37*
%LPD*%
%LPC*%
G36*
X65396Y532479D02*
X65396Y532479D01*
X64749Y532652D01*
X64170Y532987D01*
X63697Y533460D01*
X63362Y534039D01*
X63189Y534686D01*
X63189Y537521D01*
X68731Y537521D01*
X68731Y532479D01*
X65396Y532479D01*
G37*
%LPD*%
%LPC*%
G36*
X64766Y710279D02*
X64766Y710279D01*
X64119Y710452D01*
X63540Y710787D01*
X63067Y711260D01*
X62732Y711839D01*
X62559Y712486D01*
X62559Y715321D01*
X68101Y715321D01*
X68101Y710279D01*
X64766Y710279D01*
G37*
%LPD*%
%LPC*%
G36*
X454199Y101579D02*
X454199Y101579D01*
X454199Y106121D01*
X456534Y106121D01*
X457181Y105948D01*
X457760Y105613D01*
X458233Y105140D01*
X458568Y104561D01*
X458741Y103914D01*
X458741Y101579D01*
X454199Y101579D01*
G37*
%LPD*%
%LPC*%
G36*
X454199Y97581D02*
X454199Y97581D01*
X458741Y97581D01*
X458741Y95246D01*
X458568Y94599D01*
X458233Y94020D01*
X457760Y93547D01*
X457181Y93212D01*
X456534Y93039D01*
X454199Y93039D01*
X454199Y97581D01*
G37*
%LPD*%
%LPC*%
G36*
X445659Y101579D02*
X445659Y101579D01*
X445659Y103914D01*
X445832Y104561D01*
X446167Y105140D01*
X446640Y105613D01*
X447219Y105948D01*
X447866Y106121D01*
X450201Y106121D01*
X450201Y101579D01*
X445659Y101579D01*
G37*
%LPD*%
%LPC*%
G36*
X447866Y93039D02*
X447866Y93039D01*
X447219Y93212D01*
X446640Y93547D01*
X446167Y94020D01*
X445832Y94599D01*
X445659Y95246D01*
X445659Y97581D01*
X450201Y97581D01*
X450201Y93039D01*
X447866Y93039D01*
G37*
%LPD*%
%LPC*%
G36*
X694849Y149739D02*
X694849Y149739D01*
X694849Y149741D01*
X694851Y149741D01*
X694851Y149739D01*
X694849Y149739D01*
G37*
%LPD*%
%LPC*%
G36*
X396079Y170039D02*
X396079Y170039D01*
X396079Y170041D01*
X396081Y170041D01*
X396081Y170039D01*
X396079Y170039D01*
G37*
%LPD*%
%LPC*%
G36*
X455799Y228474D02*
X455799Y228474D01*
X455799Y228476D01*
X455801Y228476D01*
X455801Y228474D01*
X455799Y228474D01*
G37*
%LPD*%
%LPC*%
G36*
X377634Y115629D02*
X377634Y115629D01*
X377634Y115631D01*
X377636Y115631D01*
X377636Y115629D01*
X377634Y115629D01*
G37*
%LPD*%
D10*
X233920Y321240D03*
X233920Y448240D03*
X133920Y448240D03*
X133920Y321240D03*
D11*
X297180Y320040D03*
X312420Y320040D03*
X312420Y345440D03*
X297180Y345440D03*
X297180Y370840D03*
X312420Y370840D03*
X297180Y396240D03*
X312420Y396240D03*
X312420Y421640D03*
X297180Y421640D03*
X297180Y447040D03*
X312420Y447040D03*
D10*
X233920Y489200D03*
X233920Y616200D03*
X133920Y616200D03*
X133920Y489200D03*
D11*
X297180Y487680D03*
X312420Y487680D03*
X312420Y513080D03*
X297180Y513080D03*
X297180Y538480D03*
X312420Y538480D03*
X297180Y563880D03*
X312420Y563880D03*
X312420Y589280D03*
X297180Y589280D03*
X297180Y614680D03*
X312420Y614680D03*
D10*
X233920Y667320D03*
X233920Y794320D03*
X133920Y794320D03*
X133920Y667320D03*
D11*
X297180Y665480D03*
X312420Y665480D03*
X312420Y690880D03*
X297180Y690880D03*
X297180Y716280D03*
X312420Y716280D03*
X297180Y741680D03*
X312420Y741680D03*
X312420Y767080D03*
X297180Y767080D03*
X297180Y792480D03*
X312420Y792480D03*
D12*
X296740Y914520D03*
X296740Y863720D03*
X350000Y914520D03*
X350000Y863720D03*
X243480Y914520D03*
X243480Y863720D03*
D10*
X604520Y665480D03*
X679520Y665480D03*
X568960Y604520D03*
X643960Y604520D03*
X538480Y543560D03*
X613480Y543560D03*
D11*
X452200Y114820D03*
X452200Y99580D03*
D13*
X428435Y115630D03*
X377635Y115630D03*
D14*
X440080Y170040D03*
X396080Y170040D03*
D15*
X125000Y50000D03*
X605000Y50000D03*
X595000Y1095000D03*
D16*
X240550Y168500D03*
D17*
X253250Y193900D03*
X265950Y168500D03*
X278650Y193900D03*
X291350Y168500D03*
X304050Y193900D03*
X316750Y168500D03*
X329450Y193900D03*
D18*
X320730Y224470D03*
X311730Y224470D03*
D19*
X418690Y312406D02*
X426310Y312406D01*
D18*
X427580Y312406D03*
X417420Y312406D03*
D19*
X418436Y201658D02*
X426056Y201658D01*
D18*
X427326Y201658D03*
X417166Y201658D03*
D20*
X444880Y985660D03*
X394880Y985660D03*
X344880Y985660D03*
X294880Y985660D03*
X244880Y985660D03*
D21*
X428730Y576870D03*
D10*
X428730Y801870D03*
D22*
X428730Y653070D03*
X428730Y728070D03*
D23*
X553320Y713760D03*
X553320Y914760D03*
X678320Y713760D03*
X678320Y914760D03*
X565700Y749930D03*
X565700Y874930D03*
X665700Y749930D03*
X665700Y874930D03*
D24*
X498000Y410725D03*
D20*
X498000Y359925D03*
X701200Y309125D03*
X701200Y410725D03*
D25*
X694850Y479940D03*
D26*
X504350Y479940D03*
X567800Y149740D03*
X694850Y149740D03*
D27*
X70600Y717820D03*
X70600Y734820D03*
D28*
X70600Y688220D03*
X70600Y764420D03*
D27*
X71230Y540020D03*
X71230Y557020D03*
D28*
X71230Y510420D03*
X71230Y586620D03*
D27*
X70590Y382540D03*
X70590Y399540D03*
D28*
X70590Y352940D03*
X70590Y429140D03*
D29*
X387200Y279275D03*
X387200Y228475D03*
X455800Y228475D03*
X455800Y279275D03*
D24*
X134500Y167375D03*
D20*
X134500Y217375D03*
D19*
X48260Y391160D02*
X56760Y399660D01*
X48260Y327660D02*
X105920Y270000D01*
X48260Y327660D02*
X48260Y391160D01*
X230000Y179050D02*
X240550Y168500D01*
X160000Y270000D02*
X105920Y270000D01*
X230000Y200000D02*
X230000Y179050D01*
X230000Y200000D02*
X160000Y270000D01*
X70590Y399540D02*
X70590Y429140D01*
X70470Y399660D02*
X70590Y399540D01*
X70470Y399660D02*
X56760Y399660D01*
X157480Y543560D02*
X143900Y557140D01*
X157480Y543560D02*
X157480Y309880D01*
X253250Y214110D02*
X253250Y193900D01*
X253250Y214110D02*
X157480Y309880D01*
X71230Y557020D02*
X71230Y586620D01*
X71350Y557140D02*
X71230Y557020D01*
X71350Y557140D02*
X143900Y557140D01*
X101600Y680720D02*
X101600Y726440D01*
X101600Y680720D02*
X91059Y670179D01*
X30480Y609600D01*
X30480Y320040D01*
X101600Y726440D02*
X93100Y734940D01*
X30480Y320040D02*
X100520Y250000D01*
X265950Y168500D02*
X265950Y145950D01*
X260000Y140000D01*
X220000Y140000D02*
X210000Y150000D01*
X150000Y250000D02*
X100520Y250000D01*
X220000Y140000D02*
X260000Y140000D01*
X210000Y150000D02*
X210000Y190000D01*
X150000Y250000D01*
X93100Y734940D02*
X70720Y734940D01*
X70600Y734820D01*
X70600Y764420D01*
X312420Y345440D02*
X312420Y320040D01*
X312420Y396240D02*
X312420Y421640D01*
X297180Y421640D02*
X297180Y447040D01*
X297180Y370840D02*
X297180Y345440D01*
X312420Y487680D02*
X312420Y513080D01*
X312420Y563880D02*
X312420Y589280D01*
X297180Y589280D02*
X297180Y614680D01*
X297180Y538480D02*
X297180Y513080D01*
X312420Y665480D02*
X312420Y690880D01*
X312420Y741680D02*
X312420Y767080D01*
X297180Y767080D02*
X297180Y792480D01*
X297180Y716280D02*
X297180Y690880D01*
X340360Y716280D02*
X391160Y665480D01*
X391160Y558800D01*
X370840Y538480D01*
D30*
X665700Y726380D02*
X678320Y713760D01*
X665700Y726380D02*
X665700Y749930D01*
X498000Y473590D02*
X498000Y410725D01*
X498000Y473590D02*
X504350Y479940D01*
D19*
X470020Y479940D01*
X391160Y558800D01*
D30*
X614814Y479940D02*
X706120Y571246D01*
X706120Y695866D01*
X688226Y713760D01*
X678320Y713760D01*
X614814Y479940D02*
X504350Y479940D01*
D19*
X421640Y370840D02*
X312420Y370840D01*
X461525Y410725D02*
X498000Y410725D01*
X461525Y410725D02*
X421640Y370840D01*
X370840Y538480D02*
X312420Y538480D01*
X312420Y716280D02*
X340360Y716280D01*
D31*
X375920Y447040D03*
D30*
X565700Y726140D02*
X565700Y749930D01*
X565700Y726140D02*
X553320Y713760D01*
X547425Y359925D02*
X498000Y359925D01*
X547425Y359925D02*
X667440Y479940D01*
D19*
X375920Y447040D02*
X312420Y447040D01*
D30*
X667440Y479940D02*
X694850Y479940D01*
X568960Y604520D02*
X482600Y690880D01*
X406400Y690880D01*
X375920Y721360D01*
X375920Y792480D01*
X335280Y833120D01*
X320040Y833120D01*
X296740Y856420D01*
X296740Y863720D01*
D31*
X355600Y614680D03*
D19*
X312420Y614680D01*
X243480Y843640D02*
X243480Y863720D01*
X279400Y807720D02*
X309880Y807720D01*
X279400Y807720D02*
X243480Y843640D01*
X309880Y807720D02*
X312420Y805180D01*
X312420Y792480D01*
D30*
X243480Y914520D02*
X243480Y984260D01*
X244880Y985660D01*
X350000Y980540D02*
X350000Y914520D01*
X350000Y980540D02*
X344880Y985660D01*
X296740Y983800D02*
X296740Y914520D01*
X296740Y983800D02*
X294880Y985660D01*
X428730Y653070D02*
X428730Y576870D01*
X665700Y902140D02*
X678320Y914760D01*
X643960Y574040D02*
X613480Y543560D01*
X643960Y574040D02*
X643960Y604520D01*
X679520Y640080D01*
X679520Y665480D01*
X613480Y543560D02*
X584778Y514858D01*
X428730Y565680D02*
X428730Y576870D01*
X479552Y514858D02*
X584778Y514858D01*
X479552Y514858D02*
X428730Y565680D01*
X665700Y874930D02*
X665700Y902140D01*
X411360Y863720D02*
X350000Y863720D01*
X564804Y874930D02*
X565700Y874930D01*
X565700Y902380D02*
X553320Y914760D01*
X565700Y902380D02*
X565700Y874930D01*
X604520Y836110D02*
X604520Y665480D01*
X604520Y836110D02*
X565700Y874930D01*
X428730Y846350D02*
X411360Y863720D01*
X428730Y846350D02*
X428730Y801870D01*
X428730Y728070D01*
X428730Y801870D02*
X491744Y801870D01*
X564804Y874930D01*
D19*
X304050Y216790D02*
X304050Y193900D01*
X304050Y216790D02*
X311730Y224470D01*
D32*
X330200Y180020D02*
X316750Y168500D01*
X330200Y180020D02*
X329450Y193900D01*
D30*
X364150Y228600D01*
X387075Y228600D01*
X387200Y228475D01*
D19*
X329450Y215750D02*
X329450Y193900D01*
X329450Y215750D02*
X320730Y224470D01*
D33*
X401592Y201658D02*
X417166Y201658D01*
X387200Y216050D02*
X387200Y228475D01*
X387200Y216050D02*
X401592Y201658D01*
D19*
X292100Y180020D02*
X291350Y168500D01*
X292100Y180020D02*
X278650Y193900D01*
D30*
X278650Y228650D01*
X329400Y279400D01*
X387075Y279400D01*
X387200Y279275D01*
D33*
X417180Y312166D02*
X417420Y312406D01*
X417180Y312166D02*
X393446Y312166D01*
X387200Y305920D02*
X387200Y279275D01*
X387200Y305920D02*
X393446Y312166D01*
D19*
X297180Y396240D02*
X285920Y396240D01*
X233920Y448240D01*
X235120Y320040D02*
X297180Y320040D01*
X235120Y320040D02*
X233920Y321240D01*
X286240Y563880D02*
X297180Y563880D01*
X286240Y563880D02*
X233920Y616200D01*
X235440Y487680D02*
X297180Y487680D01*
X235440Y487680D02*
X233920Y489200D01*
X286560Y741680D02*
X297180Y741680D01*
X286560Y741680D02*
X233920Y794320D01*
X235760Y665480D02*
X297180Y665480D01*
X235760Y665480D02*
X233920Y667320D01*
D32*
X452200Y98700D02*
X525420Y98700D01*
X548640Y121920D01*
X609600Y121920D01*
X396580Y170040D02*
X383340Y156800D01*
D31*
X462280Y193040D03*
X378180Y172720D03*
D32*
X393900Y172720D01*
D19*
X396580Y170040D01*
D32*
X385000Y95000D02*
X448500Y95000D01*
X452200Y98700D01*
X383340Y96660D02*
X383340Y156800D01*
X383340Y96660D02*
X385000Y95000D01*
D34*
X385000Y95000D03*
D30*
X701200Y156090D02*
X701200Y309125D01*
X701200Y156090D02*
X694850Y149740D01*
D32*
X485000Y1105040D02*
X477520Y1112520D01*
X208280Y1112520D01*
X27060Y931300D01*
D30*
X485000Y1025780D02*
X485000Y1105040D01*
X485000Y1025780D02*
X444880Y985660D01*
D31*
X508000Y198120D03*
X548640Y269240D03*
X665480Y228600D03*
X80000Y200000D03*
X21590Y316230D03*
X21590Y642620D03*
X153670Y929640D03*
D32*
X455800Y228475D02*
X455800Y228460D01*
D19*
X70600Y688220D02*
X70600Y717820D01*
D32*
X70600Y688220D02*
X27060Y731760D01*
X27060Y931300D01*
D19*
X71230Y540020D02*
X71230Y510420D01*
X70590Y382540D02*
X70590Y352940D01*
D30*
X609600Y121920D02*
X637420Y149740D01*
X694850Y149740D01*
D33*
X441688Y201658D02*
X427326Y201658D01*
X455800Y215770D02*
X455800Y228460D01*
X455800Y215770D02*
X441688Y201658D01*
X455800Y199520D02*
X462280Y193040D01*
X455800Y199520D02*
X455800Y215770D01*
D32*
X567740Y149800D02*
X567800Y149740D01*
D30*
X567950Y217430D02*
X566940Y218440D01*
X567950Y217430D02*
X701200Y350680D01*
X516635Y218440D02*
X455800Y279275D01*
X516635Y218440D02*
X566940Y218440D01*
D32*
X567950Y217430D02*
X567800Y217280D01*
X701200Y350680D02*
X701200Y410725D01*
X567800Y217280D02*
X567800Y149740D01*
D33*
X448070Y312406D02*
X427580Y312406D01*
X455800Y304676D02*
X455800Y279275D01*
X455800Y304676D02*
X448070Y312406D01*
X452200Y114820D02*
X429245Y114820D01*
X428435Y115630D01*
X452200Y114820D02*
X452200Y136826D01*
X440080Y148946D02*
X440080Y170040D01*
X440080Y148946D02*
X452200Y136826D01*
X465174Y149800D01*
X567740Y149800D01*
M02*
