G04 EAGLE Gerber RS-274X export*
G75*
%MOMM*%
%FSLAX34Y34*%
%LPD*%
%IN*%
%IPPOS*%
%AMOC8*
5,1,8,0,0,1.08239X$1,22.5*%
G01*
%ADD10C,0.254000*%


D10*
X0Y110000D02*
X110000Y110000D01*
X110000Y35000D01*
X620000Y35000D01*
X620000Y110000D01*
X730000Y110000D01*
X730000Y1090000D01*
X620000Y1090000D01*
X620000Y1165000D01*
X110000Y1165000D01*
X110000Y1090000D01*
X0Y1090000D01*
X0Y110000D01*
X412750Y914400D02*
X421640Y914400D01*
X421640Y1097280D01*
X412750Y1097280D01*
X412750Y914400D01*
X675000Y440000D02*
X715000Y440000D01*
X715000Y450000D01*
X675000Y450000D01*
X675000Y440000D01*
X370950Y878290D02*
X379680Y878290D01*
X379680Y1097540D01*
X370950Y1097540D01*
X370950Y878290D01*
X264920Y847540D02*
X274920Y847540D01*
X274920Y1098810D01*
X264920Y1098810D01*
X264920Y847540D01*
X318570Y847810D02*
X328570Y847810D01*
X328570Y1097540D01*
X318570Y1097540D01*
X318570Y847810D01*
X180000Y64464D02*
X179924Y63396D01*
X179771Y62335D01*
X179543Y61288D01*
X179241Y60260D01*
X178867Y59256D01*
X178422Y58281D01*
X177908Y57341D01*
X177329Y56440D01*
X176687Y55582D01*
X175985Y54772D01*
X175228Y54015D01*
X174418Y53313D01*
X173560Y52671D01*
X172659Y52092D01*
X171719Y51578D01*
X170744Y51133D01*
X169740Y50759D01*
X168712Y50457D01*
X167665Y50229D01*
X166604Y50076D01*
X165536Y50000D01*
X164464Y50000D01*
X163396Y50076D01*
X162335Y50229D01*
X161288Y50457D01*
X160260Y50759D01*
X159256Y51133D01*
X158281Y51578D01*
X157341Y52092D01*
X156440Y52671D01*
X155582Y53313D01*
X154772Y54015D01*
X154015Y54772D01*
X153313Y55582D01*
X152671Y56440D01*
X152092Y57341D01*
X151578Y58281D01*
X151133Y59256D01*
X150759Y60260D01*
X150457Y61288D01*
X150229Y62335D01*
X150076Y63396D01*
X150000Y64464D01*
X150000Y65536D01*
X150076Y66604D01*
X150229Y67665D01*
X150457Y68712D01*
X150759Y69740D01*
X151133Y70744D01*
X151578Y71719D01*
X152092Y72659D01*
X152671Y73560D01*
X153313Y74418D01*
X154015Y75228D01*
X154772Y75985D01*
X155582Y76687D01*
X156440Y77329D01*
X157341Y77908D01*
X158281Y78422D01*
X159256Y78867D01*
X160260Y79241D01*
X161288Y79543D01*
X162335Y79771D01*
X163396Y79924D01*
X164464Y80000D01*
X165536Y80000D01*
X166604Y79924D01*
X167665Y79771D01*
X168712Y79543D01*
X169740Y79241D01*
X170744Y78867D01*
X171719Y78422D01*
X172659Y77908D01*
X173560Y77329D01*
X174418Y76687D01*
X175228Y75985D01*
X175985Y75228D01*
X176687Y74418D01*
X177329Y73560D01*
X177908Y72659D01*
X178422Y71719D01*
X178867Y70744D01*
X179241Y69740D01*
X179543Y68712D01*
X179771Y67665D01*
X179924Y66604D01*
X180000Y65536D01*
X180000Y64464D01*
X180000Y1134464D02*
X179924Y1133396D01*
X179771Y1132335D01*
X179543Y1131288D01*
X179241Y1130260D01*
X178867Y1129256D01*
X178422Y1128281D01*
X177908Y1127341D01*
X177329Y1126440D01*
X176687Y1125582D01*
X175985Y1124772D01*
X175228Y1124015D01*
X174418Y1123313D01*
X173560Y1122671D01*
X172659Y1122092D01*
X171719Y1121578D01*
X170744Y1121133D01*
X169740Y1120759D01*
X168712Y1120457D01*
X167665Y1120229D01*
X166604Y1120076D01*
X165536Y1120000D01*
X164464Y1120000D01*
X163396Y1120076D01*
X162335Y1120229D01*
X161288Y1120457D01*
X160260Y1120759D01*
X159256Y1121133D01*
X158281Y1121578D01*
X157341Y1122092D01*
X156440Y1122671D01*
X155582Y1123313D01*
X154772Y1124015D01*
X154015Y1124772D01*
X153313Y1125582D01*
X152671Y1126440D01*
X152092Y1127341D01*
X151578Y1128281D01*
X151133Y1129256D01*
X150759Y1130260D01*
X150457Y1131288D01*
X150229Y1132335D01*
X150076Y1133396D01*
X150000Y1134464D01*
X150000Y1135536D01*
X150076Y1136604D01*
X150229Y1137665D01*
X150457Y1138712D01*
X150759Y1139740D01*
X151133Y1140744D01*
X151578Y1141719D01*
X152092Y1142659D01*
X152671Y1143560D01*
X153313Y1144418D01*
X154015Y1145228D01*
X154772Y1145985D01*
X155582Y1146687D01*
X156440Y1147329D01*
X157341Y1147908D01*
X158281Y1148422D01*
X159256Y1148867D01*
X160260Y1149241D01*
X161288Y1149543D01*
X162335Y1149771D01*
X163396Y1149924D01*
X164464Y1150000D01*
X165536Y1150000D01*
X166604Y1149924D01*
X167665Y1149771D01*
X168712Y1149543D01*
X169740Y1149241D01*
X170744Y1148867D01*
X171719Y1148422D01*
X172659Y1147908D01*
X173560Y1147329D01*
X174418Y1146687D01*
X175228Y1145985D01*
X175985Y1145228D01*
X176687Y1144418D01*
X177329Y1143560D01*
X177908Y1142659D01*
X178422Y1141719D01*
X178867Y1140744D01*
X179241Y1139740D01*
X179543Y1138712D01*
X179771Y1137665D01*
X179924Y1136604D01*
X180000Y1135536D01*
X180000Y1134464D01*
X580000Y64464D02*
X579924Y63396D01*
X579771Y62335D01*
X579543Y61288D01*
X579241Y60260D01*
X578867Y59256D01*
X578422Y58281D01*
X577908Y57341D01*
X577329Y56440D01*
X576687Y55582D01*
X575985Y54772D01*
X575228Y54015D01*
X574418Y53313D01*
X573560Y52671D01*
X572659Y52092D01*
X571719Y51578D01*
X570744Y51133D01*
X569740Y50759D01*
X568712Y50457D01*
X567665Y50229D01*
X566604Y50076D01*
X565536Y50000D01*
X564464Y50000D01*
X563396Y50076D01*
X562335Y50229D01*
X561288Y50457D01*
X560260Y50759D01*
X559256Y51133D01*
X558281Y51578D01*
X557341Y52092D01*
X556440Y52671D01*
X555582Y53313D01*
X554772Y54015D01*
X554015Y54772D01*
X553313Y55582D01*
X552671Y56440D01*
X552092Y57341D01*
X551578Y58281D01*
X551133Y59256D01*
X550759Y60260D01*
X550457Y61288D01*
X550229Y62335D01*
X550076Y63396D01*
X550000Y64464D01*
X550000Y65536D01*
X550076Y66604D01*
X550229Y67665D01*
X550457Y68712D01*
X550759Y69740D01*
X551133Y70744D01*
X551578Y71719D01*
X552092Y72659D01*
X552671Y73560D01*
X553313Y74418D01*
X554015Y75228D01*
X554772Y75985D01*
X555582Y76687D01*
X556440Y77329D01*
X557341Y77908D01*
X558281Y78422D01*
X559256Y78867D01*
X560260Y79241D01*
X561288Y79543D01*
X562335Y79771D01*
X563396Y79924D01*
X564464Y80000D01*
X565536Y80000D01*
X566604Y79924D01*
X567665Y79771D01*
X568712Y79543D01*
X569740Y79241D01*
X570744Y78867D01*
X571719Y78422D01*
X572659Y77908D01*
X573560Y77329D01*
X574418Y76687D01*
X575228Y75985D01*
X575985Y75228D01*
X576687Y74418D01*
X577329Y73560D01*
X577908Y72659D01*
X578422Y71719D01*
X578867Y70744D01*
X579241Y69740D01*
X579543Y68712D01*
X579771Y67665D01*
X579924Y66604D01*
X580000Y65536D01*
X580000Y64464D01*
X580000Y1134464D02*
X579924Y1133396D01*
X579771Y1132335D01*
X579543Y1131288D01*
X579241Y1130260D01*
X578867Y1129256D01*
X578422Y1128281D01*
X577908Y1127341D01*
X577329Y1126440D01*
X576687Y1125582D01*
X575985Y1124772D01*
X575228Y1124015D01*
X574418Y1123313D01*
X573560Y1122671D01*
X572659Y1122092D01*
X571719Y1121578D01*
X570744Y1121133D01*
X569740Y1120759D01*
X568712Y1120457D01*
X567665Y1120229D01*
X566604Y1120076D01*
X565536Y1120000D01*
X564464Y1120000D01*
X563396Y1120076D01*
X562335Y1120229D01*
X561288Y1120457D01*
X560260Y1120759D01*
X559256Y1121133D01*
X558281Y1121578D01*
X557341Y1122092D01*
X556440Y1122671D01*
X555582Y1123313D01*
X554772Y1124015D01*
X554015Y1124772D01*
X553313Y1125582D01*
X552671Y1126440D01*
X552092Y1127341D01*
X551578Y1128281D01*
X551133Y1129256D01*
X550759Y1130260D01*
X550457Y1131288D01*
X550229Y1132335D01*
X550076Y1133396D01*
X550000Y1134464D01*
X550000Y1135536D01*
X550076Y1136604D01*
X550229Y1137665D01*
X550457Y1138712D01*
X550759Y1139740D01*
X551133Y1140744D01*
X551578Y1141719D01*
X552092Y1142659D01*
X552671Y1143560D01*
X553313Y1144418D01*
X554015Y1145228D01*
X554772Y1145985D01*
X555582Y1146687D01*
X556440Y1147329D01*
X557341Y1147908D01*
X558281Y1148422D01*
X559256Y1148867D01*
X560260Y1149241D01*
X561288Y1149543D01*
X562335Y1149771D01*
X563396Y1149924D01*
X564464Y1150000D01*
X565536Y1150000D01*
X566604Y1149924D01*
X567665Y1149771D01*
X568712Y1149543D01*
X569740Y1149241D01*
X570744Y1148867D01*
X571719Y1148422D01*
X572659Y1147908D01*
X573560Y1147329D01*
X574418Y1146687D01*
X575228Y1145985D01*
X575985Y1145228D01*
X576687Y1144418D01*
X577329Y1143560D01*
X577908Y1142659D01*
X578422Y1141719D01*
X578867Y1140744D01*
X579241Y1139740D01*
X579543Y1138712D01*
X579771Y1137665D01*
X579924Y1136604D01*
X580000Y1135536D01*
X580000Y1134464D01*
X243850Y104476D02*
X243782Y103431D01*
X243645Y102392D01*
X243440Y101365D01*
X243169Y100353D01*
X242833Y99361D01*
X242432Y98393D01*
X241968Y97454D01*
X241445Y96546D01*
X240863Y95675D01*
X240225Y94844D01*
X239534Y94057D01*
X238793Y93316D01*
X238006Y92625D01*
X237175Y91988D01*
X236304Y91406D01*
X235396Y90882D01*
X234457Y90418D01*
X233489Y90017D01*
X232497Y89681D01*
X231485Y89410D01*
X230458Y89205D01*
X229419Y89069D01*
X228374Y89000D01*
X227326Y89000D01*
X226281Y89069D01*
X225242Y89205D01*
X224215Y89410D01*
X223203Y89681D01*
X222211Y90017D01*
X221243Y90418D01*
X220304Y90882D01*
X219396Y91406D01*
X218525Y91988D01*
X217694Y92625D01*
X216907Y93316D01*
X216166Y94057D01*
X215475Y94844D01*
X214838Y95675D01*
X214256Y96546D01*
X213732Y97454D01*
X213268Y98393D01*
X212867Y99361D01*
X212531Y100353D01*
X212260Y101365D01*
X212055Y102392D01*
X211919Y103431D01*
X211850Y104476D01*
X211850Y105524D01*
X211919Y106569D01*
X212055Y107608D01*
X212260Y108635D01*
X212531Y109647D01*
X212867Y110639D01*
X213268Y111607D01*
X213732Y112546D01*
X214256Y113454D01*
X214838Y114325D01*
X215475Y115156D01*
X216166Y115943D01*
X216907Y116684D01*
X217694Y117375D01*
X218525Y118013D01*
X219396Y118595D01*
X220304Y119118D01*
X221243Y119582D01*
X222211Y119983D01*
X223203Y120319D01*
X224215Y120590D01*
X225242Y120795D01*
X226281Y120932D01*
X227326Y121000D01*
X228374Y121000D01*
X229419Y120932D01*
X230458Y120795D01*
X231485Y120590D01*
X232497Y120319D01*
X233489Y119983D01*
X234457Y119582D01*
X235396Y119118D01*
X236304Y118595D01*
X237175Y118013D01*
X238006Y117375D01*
X238793Y116684D01*
X239534Y115943D01*
X240225Y115156D01*
X240863Y114325D01*
X241445Y113454D01*
X241968Y112546D01*
X242432Y111607D01*
X242833Y110639D01*
X243169Y109647D01*
X243440Y108635D01*
X243645Y107608D01*
X243782Y106569D01*
X243850Y105524D01*
X243850Y104476D01*
X358150Y104476D02*
X358082Y103431D01*
X357945Y102392D01*
X357740Y101365D01*
X357469Y100353D01*
X357133Y99361D01*
X356732Y98393D01*
X356268Y97454D01*
X355745Y96546D01*
X355163Y95675D01*
X354525Y94844D01*
X353834Y94057D01*
X353093Y93316D01*
X352306Y92625D01*
X351475Y91988D01*
X350604Y91406D01*
X349696Y90882D01*
X348757Y90418D01*
X347789Y90017D01*
X346797Y89681D01*
X345785Y89410D01*
X344758Y89205D01*
X343719Y89069D01*
X342674Y89000D01*
X341626Y89000D01*
X340581Y89069D01*
X339542Y89205D01*
X338515Y89410D01*
X337503Y89681D01*
X336511Y90017D01*
X335543Y90418D01*
X334604Y90882D01*
X333696Y91406D01*
X332825Y91988D01*
X331994Y92625D01*
X331207Y93316D01*
X330466Y94057D01*
X329775Y94844D01*
X329138Y95675D01*
X328556Y96546D01*
X328032Y97454D01*
X327568Y98393D01*
X327167Y99361D01*
X326831Y100353D01*
X326560Y101365D01*
X326355Y102392D01*
X326219Y103431D01*
X326150Y104476D01*
X326150Y105524D01*
X326219Y106569D01*
X326355Y107608D01*
X326560Y108635D01*
X326831Y109647D01*
X327167Y110639D01*
X327568Y111607D01*
X328032Y112546D01*
X328556Y113454D01*
X329138Y114325D01*
X329775Y115156D01*
X330466Y115943D01*
X331207Y116684D01*
X331994Y117375D01*
X332825Y118013D01*
X333696Y118595D01*
X334604Y119118D01*
X335543Y119582D01*
X336511Y119983D01*
X337503Y120319D01*
X338515Y120590D01*
X339542Y120795D01*
X340581Y120932D01*
X341626Y121000D01*
X342674Y121000D01*
X343719Y120932D01*
X344758Y120795D01*
X345785Y120590D01*
X346797Y120319D01*
X347789Y119983D01*
X348757Y119582D01*
X349696Y119118D01*
X350604Y118595D01*
X351475Y118013D01*
X352306Y117375D01*
X353093Y116684D01*
X353834Y115943D01*
X354525Y115156D01*
X355163Y114325D01*
X355745Y113454D01*
X356268Y112546D01*
X356732Y111607D01*
X357133Y110639D01*
X357469Y109647D01*
X357740Y108635D01*
X357945Y107608D01*
X358082Y106569D01*
X358150Y105524D01*
X358150Y104476D01*
M02*
