G04 EAGLE Gerber RS-274X export*
G75*
%MOMM*%
%FSLAX34Y34*%
%LPD*%
%INSoldermask Top*%
%IPPOS*%
%AMOC8*
5,1,8,0,0,1.08239X$1,22.5*%
G01*
%ADD10C,3.203200*%
%ADD11C,2.003200*%
%ADD12R,1.003200X1.003200*%
%ADD13C,2.133600*%
%ADD14R,2.743200X1.473200*%
%ADD15R,2.403200X2.353200*%
%ADD16C,1.203200*%
%ADD17R,2.082800X2.082800*%
%ADD18C,2.082800*%
%ADD19C,3.403200*%
%ADD20R,0.838200X1.473200*%
%ADD21C,2.183200*%
%ADD22R,2.003200X2.003200*%
%ADD23C,1.733200*%
%ADD24C,2.743200*%
%ADD25R,2.183200X2.183200*%
%ADD26R,2.903200X2.903200*%
%ADD27C,2.903200*%
%ADD28R,1.303200X1.203200*%
%ADD29P,1.803519X8X112.500000*%
%ADD30R,1.473200X1.983200*%


D10*
X165000Y65000D03*
X165000Y1135000D03*
X565000Y65000D03*
X565000Y1135000D03*
D11*
X233920Y321240D03*
X233920Y448240D03*
X133920Y448240D03*
X133920Y321240D03*
D12*
X297180Y320040D03*
X312420Y320040D03*
X312420Y345440D03*
X297180Y345440D03*
X297180Y370840D03*
X312420Y370840D03*
X297180Y396240D03*
X312420Y396240D03*
X312420Y421640D03*
X297180Y421640D03*
X297180Y447040D03*
X312420Y447040D03*
D11*
X233920Y489200D03*
X233920Y616200D03*
X133920Y616200D03*
X133920Y489200D03*
D12*
X297180Y487680D03*
X312420Y487680D03*
X312420Y513080D03*
X297180Y513080D03*
X297180Y538480D03*
X312420Y538480D03*
X297180Y563880D03*
X312420Y563880D03*
X312420Y589280D03*
X297180Y589280D03*
X297180Y614680D03*
X312420Y614680D03*
D11*
X233920Y667320D03*
X233920Y794320D03*
X133920Y794320D03*
X133920Y667320D03*
D12*
X297180Y665480D03*
X312420Y665480D03*
X312420Y690880D03*
X297180Y690880D03*
X297180Y716280D03*
X312420Y716280D03*
X297180Y741680D03*
X312420Y741680D03*
X312420Y767080D03*
X297180Y767080D03*
X297180Y792480D03*
X312420Y792480D03*
D13*
X296740Y914520D03*
X296740Y863720D03*
X350000Y914520D03*
X350000Y863720D03*
X243480Y914520D03*
X243480Y863720D03*
D11*
X604520Y665480D03*
X679520Y665480D03*
X568960Y604520D03*
X643960Y604520D03*
X538480Y543560D03*
X613480Y543560D03*
D12*
X452200Y114820D03*
X452200Y99580D03*
D14*
X428435Y115630D03*
X377635Y115630D03*
D15*
X440080Y170040D03*
X396080Y170040D03*
D16*
X125000Y50000D03*
X605000Y50000D03*
X595000Y1095000D03*
D17*
X240550Y168500D03*
D18*
X253250Y193900D03*
X265950Y168500D03*
X278650Y193900D03*
X291350Y168500D03*
X304050Y193900D03*
X316750Y168500D03*
X329450Y193900D03*
D19*
X227850Y105000D03*
X342150Y105000D03*
D20*
X320730Y224470D03*
X311730Y224470D03*
X427580Y312406D03*
X417420Y312406D03*
X427326Y201658D03*
X417166Y201658D03*
D21*
X444880Y985660D03*
X394880Y985660D03*
X344880Y985660D03*
X294880Y985660D03*
X244880Y985660D03*
D22*
X428730Y576870D03*
D11*
X428730Y801870D03*
D23*
X428730Y653070D03*
X428730Y728070D03*
D24*
X553320Y713760D03*
X553320Y914760D03*
X678320Y713760D03*
X678320Y914760D03*
X565700Y749930D03*
X565700Y874930D03*
X665700Y749930D03*
X665700Y874930D03*
D25*
X498000Y410725D03*
D21*
X498000Y359925D03*
X701200Y309125D03*
X701200Y410725D03*
D26*
X694850Y479940D03*
D27*
X504350Y479940D03*
X567800Y149740D03*
X694850Y149740D03*
D28*
X70600Y717820D03*
X70600Y734820D03*
D29*
X70600Y688220D03*
X70600Y764420D03*
D28*
X71230Y540020D03*
X71230Y557020D03*
D29*
X71230Y510420D03*
X71230Y586620D03*
D28*
X70590Y382540D03*
X70590Y399540D03*
D29*
X70590Y352940D03*
X70590Y429140D03*
D30*
X387200Y279275D03*
X387200Y228475D03*
X455800Y228475D03*
X455800Y279275D03*
D25*
X134500Y167375D03*
D21*
X134500Y217375D03*
M02*
