G04 EAGLE Gerber RS-274X export*
G75*
%MOMM*%
%FSLAX34Y34*%
%LPD*%
%INSoldermask Top*%
%IPPOS*%
%AMOC8*
5,1,8,0,0,1.08239X$1,22.5*%
G01*
%ADD10C,3.203200*%
%ADD11C,2.003200*%
%ADD12C,2.082800*%
%ADD13C,3.454400*%
%ADD14P,1.803519X8X292.500000*%
%ADD15R,1.303200X1.203200*%
%ADD16R,1.203200X1.303200*%
%ADD17C,2.133600*%
%ADD18R,2.903200X2.903200*%
%ADD19C,2.903200*%
%ADD20R,2.183200X2.183200*%
%ADD21C,2.183200*%
%ADD22R,2.803200X1.603200*%
%ADD23R,2.453200X2.253200*%
%ADD24C,1.203200*%
%ADD25C,2.743200*%
%ADD26R,2.003200X2.003200*%
%ADD27C,1.733200*%
%ADD28R,1.473200X1.983200*%


D10*
X165000Y65000D03*
X165000Y1135000D03*
X565000Y65000D03*
X565000Y1135000D03*
D11*
X233920Y321240D03*
X233920Y448240D03*
X133920Y448240D03*
X133920Y321240D03*
D12*
X245020Y251790D03*
X219620Y239090D03*
X245020Y226390D03*
X219620Y213690D03*
X245020Y200990D03*
X219620Y188290D03*
D13*
X156120Y270840D03*
X156120Y169240D03*
D14*
X71120Y429260D03*
X71120Y353060D03*
D15*
X71120Y399660D03*
X71120Y382660D03*
D16*
X296300Y320040D03*
X313300Y320040D03*
X313300Y345440D03*
X296300Y345440D03*
X296300Y370840D03*
X313300Y370840D03*
X296300Y396240D03*
X313300Y396240D03*
X313300Y421640D03*
X296300Y421640D03*
X296300Y447040D03*
X313300Y447040D03*
D11*
X233920Y489200D03*
X233920Y616200D03*
X133920Y616200D03*
X133920Y489200D03*
D14*
X71120Y586740D03*
X71120Y510540D03*
D15*
X71120Y557140D03*
X71120Y540140D03*
D16*
X296300Y487680D03*
X313300Y487680D03*
X313300Y513080D03*
X296300Y513080D03*
X296300Y538480D03*
X313300Y538480D03*
X296300Y563880D03*
X313300Y563880D03*
X313300Y589280D03*
X296300Y589280D03*
X296300Y614680D03*
X313300Y614680D03*
D11*
X233920Y667320D03*
X233920Y794320D03*
X133920Y794320D03*
X133920Y667320D03*
D14*
X71120Y764540D03*
X71120Y688340D03*
D15*
X71120Y734940D03*
X71120Y717940D03*
D16*
X296300Y665480D03*
X313300Y665480D03*
X313300Y690880D03*
X296300Y690880D03*
X296300Y716280D03*
X313300Y716280D03*
X296300Y741680D03*
X313300Y741680D03*
X313300Y767080D03*
X296300Y767080D03*
X296300Y792480D03*
X313300Y792480D03*
D17*
X296740Y914520D03*
X296740Y863720D03*
X350000Y914520D03*
X350000Y863720D03*
X243480Y914520D03*
X243480Y863720D03*
D18*
X695000Y480000D03*
D19*
X504500Y480000D03*
X567950Y149800D03*
X695000Y149800D03*
D20*
X495000Y410000D03*
D21*
X495000Y359200D03*
X698200Y308400D03*
X698200Y410000D03*
D11*
X604520Y665480D03*
X679520Y665480D03*
X568960Y604520D03*
X643960Y604520D03*
X538480Y543560D03*
X613480Y543560D03*
D16*
X452200Y115700D03*
X452200Y98700D03*
D22*
X383340Y116120D03*
X424340Y116120D03*
D23*
X439580Y170040D03*
X396580Y170040D03*
D24*
X125000Y50000D03*
X605000Y50000D03*
X595000Y1095000D03*
D25*
X559200Y875680D03*
X659200Y875680D03*
X559200Y750680D03*
X659200Y750680D03*
X547600Y912980D03*
X672600Y912980D03*
X547600Y711980D03*
X672600Y711980D03*
D26*
X429240Y577000D03*
D11*
X429240Y802000D03*
D27*
X430240Y655000D03*
X430240Y730000D03*
D28*
X387340Y279400D03*
X387340Y228600D03*
X455940Y228600D03*
X455940Y279400D03*
D21*
X344200Y241600D03*
D20*
X294200Y241600D03*
D21*
X444880Y985660D03*
X394880Y985660D03*
X344880Y985660D03*
X294880Y985660D03*
X244880Y985660D03*
M02*
