G04 EAGLE Gerber RS-274X export*
G75*
%MOMM*%
%FSLAX34Y34*%
%LPD*%
%IN*%
%IPPOS*%
%AMOC8*
5,1,8,0,0,1.08239X$1,22.5*%
G01*
%ADD10C,0.254000*%


D10*
X0Y110000D02*
X110000Y110000D01*
X110000Y35000D01*
X620000Y35000D01*
X620000Y110000D01*
X730000Y110000D01*
X730000Y1090000D01*
X620000Y1090000D01*
X620000Y1165000D01*
X110000Y1165000D01*
X110000Y1090000D01*
X0Y1090000D01*
X0Y110000D01*
X675000Y440000D02*
X715000Y440000D01*
X715000Y450000D01*
X675000Y450000D01*
X675000Y440000D01*
X370950Y878290D02*
X379680Y878290D01*
X379680Y1097540D01*
X370950Y1097540D01*
X370950Y878290D01*
X264920Y847540D02*
X274920Y847540D01*
X274920Y1098810D01*
X264920Y1098810D01*
X264920Y847540D01*
X318570Y847810D02*
X328570Y847810D01*
X328570Y1097540D01*
X318570Y1097540D01*
X318570Y847810D01*
X180000Y64464D02*
X179924Y63396D01*
X179771Y62335D01*
X179543Y61288D01*
X179241Y60260D01*
X178867Y59256D01*
X178422Y58281D01*
X177908Y57341D01*
X177329Y56440D01*
X176687Y55582D01*
X175985Y54772D01*
X175228Y54015D01*
X174418Y53313D01*
X173560Y52671D01*
X172659Y52092D01*
X171719Y51578D01*
X170744Y51133D01*
X169740Y50759D01*
X168712Y50457D01*
X167665Y50229D01*
X166604Y50076D01*
X165536Y50000D01*
X164464Y50000D01*
X163396Y50076D01*
X162335Y50229D01*
X161288Y50457D01*
X160260Y50759D01*
X159256Y51133D01*
X158281Y51578D01*
X157341Y52092D01*
X156440Y52671D01*
X155582Y53313D01*
X154772Y54015D01*
X154015Y54772D01*
X153313Y55582D01*
X152671Y56440D01*
X152092Y57341D01*
X151578Y58281D01*
X151133Y59256D01*
X150759Y60260D01*
X150457Y61288D01*
X150229Y62335D01*
X150076Y63396D01*
X150000Y64464D01*
X150000Y65536D01*
X150076Y66604D01*
X150229Y67665D01*
X150457Y68712D01*
X150759Y69740D01*
X151133Y70744D01*
X151578Y71719D01*
X152092Y72659D01*
X152671Y73560D01*
X153313Y74418D01*
X154015Y75228D01*
X154772Y75985D01*
X155582Y76687D01*
X156440Y77329D01*
X157341Y77908D01*
X158281Y78422D01*
X159256Y78867D01*
X160260Y79241D01*
X161288Y79543D01*
X162335Y79771D01*
X163396Y79924D01*
X164464Y80000D01*
X165536Y80000D01*
X166604Y79924D01*
X167665Y79771D01*
X168712Y79543D01*
X169740Y79241D01*
X170744Y78867D01*
X171719Y78422D01*
X172659Y77908D01*
X173560Y77329D01*
X174418Y76687D01*
X175228Y75985D01*
X175985Y75228D01*
X176687Y74418D01*
X177329Y73560D01*
X177908Y72659D01*
X178422Y71719D01*
X178867Y70744D01*
X179241Y69740D01*
X179543Y68712D01*
X179771Y67665D01*
X179924Y66604D01*
X180000Y65536D01*
X180000Y64464D01*
X180000Y1134464D02*
X179924Y1133396D01*
X179771Y1132335D01*
X179543Y1131288D01*
X179241Y1130260D01*
X178867Y1129256D01*
X178422Y1128281D01*
X177908Y1127341D01*
X177329Y1126440D01*
X176687Y1125582D01*
X175985Y1124772D01*
X175228Y1124015D01*
X174418Y1123313D01*
X173560Y1122671D01*
X172659Y1122092D01*
X171719Y1121578D01*
X170744Y1121133D01*
X169740Y1120759D01*
X168712Y1120457D01*
X167665Y1120229D01*
X166604Y1120076D01*
X165536Y1120000D01*
X164464Y1120000D01*
X163396Y1120076D01*
X162335Y1120229D01*
X161288Y1120457D01*
X160260Y1120759D01*
X159256Y1121133D01*
X158281Y1121578D01*
X157341Y1122092D01*
X156440Y1122671D01*
X155582Y1123313D01*
X154772Y1124015D01*
X154015Y1124772D01*
X153313Y1125582D01*
X152671Y1126440D01*
X152092Y1127341D01*
X151578Y1128281D01*
X151133Y1129256D01*
X150759Y1130260D01*
X150457Y1131288D01*
X150229Y1132335D01*
X150076Y1133396D01*
X150000Y1134464D01*
X150000Y1135536D01*
X150076Y1136604D01*
X150229Y1137665D01*
X150457Y1138712D01*
X150759Y1139740D01*
X151133Y1140744D01*
X151578Y1141719D01*
X152092Y1142659D01*
X152671Y1143560D01*
X153313Y1144418D01*
X154015Y1145228D01*
X154772Y1145985D01*
X155582Y1146687D01*
X156440Y1147329D01*
X157341Y1147908D01*
X158281Y1148422D01*
X159256Y1148867D01*
X160260Y1149241D01*
X161288Y1149543D01*
X162335Y1149771D01*
X163396Y1149924D01*
X164464Y1150000D01*
X165536Y1150000D01*
X166604Y1149924D01*
X167665Y1149771D01*
X168712Y1149543D01*
X169740Y1149241D01*
X170744Y1148867D01*
X171719Y1148422D01*
X172659Y1147908D01*
X173560Y1147329D01*
X174418Y1146687D01*
X175228Y1145985D01*
X175985Y1145228D01*
X176687Y1144418D01*
X177329Y1143560D01*
X177908Y1142659D01*
X178422Y1141719D01*
X178867Y1140744D01*
X179241Y1139740D01*
X179543Y1138712D01*
X179771Y1137665D01*
X179924Y1136604D01*
X180000Y1135536D01*
X180000Y1134464D01*
X580000Y64464D02*
X579924Y63396D01*
X579771Y62335D01*
X579543Y61288D01*
X579241Y60260D01*
X578867Y59256D01*
X578422Y58281D01*
X577908Y57341D01*
X577329Y56440D01*
X576687Y55582D01*
X575985Y54772D01*
X575228Y54015D01*
X574418Y53313D01*
X573560Y52671D01*
X572659Y52092D01*
X571719Y51578D01*
X570744Y51133D01*
X569740Y50759D01*
X568712Y50457D01*
X567665Y50229D01*
X566604Y50076D01*
X565536Y50000D01*
X564464Y50000D01*
X563396Y50076D01*
X562335Y50229D01*
X561288Y50457D01*
X560260Y50759D01*
X559256Y51133D01*
X558281Y51578D01*
X557341Y52092D01*
X556440Y52671D01*
X555582Y53313D01*
X554772Y54015D01*
X554015Y54772D01*
X553313Y55582D01*
X552671Y56440D01*
X552092Y57341D01*
X551578Y58281D01*
X551133Y59256D01*
X550759Y60260D01*
X550457Y61288D01*
X550229Y62335D01*
X550076Y63396D01*
X550000Y64464D01*
X550000Y65536D01*
X550076Y66604D01*
X550229Y67665D01*
X550457Y68712D01*
X550759Y69740D01*
X551133Y70744D01*
X551578Y71719D01*
X552092Y72659D01*
X552671Y73560D01*
X553313Y74418D01*
X554015Y75228D01*
X554772Y75985D01*
X555582Y76687D01*
X556440Y77329D01*
X557341Y77908D01*
X558281Y78422D01*
X559256Y78867D01*
X560260Y79241D01*
X561288Y79543D01*
X562335Y79771D01*
X563396Y79924D01*
X564464Y80000D01*
X565536Y80000D01*
X566604Y79924D01*
X567665Y79771D01*
X568712Y79543D01*
X569740Y79241D01*
X570744Y78867D01*
X571719Y78422D01*
X572659Y77908D01*
X573560Y77329D01*
X574418Y76687D01*
X575228Y75985D01*
X575985Y75228D01*
X576687Y74418D01*
X577329Y73560D01*
X577908Y72659D01*
X578422Y71719D01*
X578867Y70744D01*
X579241Y69740D01*
X579543Y68712D01*
X579771Y67665D01*
X579924Y66604D01*
X580000Y65536D01*
X580000Y64464D01*
X580000Y1134464D02*
X579924Y1133396D01*
X579771Y1132335D01*
X579543Y1131288D01*
X579241Y1130260D01*
X578867Y1129256D01*
X578422Y1128281D01*
X577908Y1127341D01*
X577329Y1126440D01*
X576687Y1125582D01*
X575985Y1124772D01*
X575228Y1124015D01*
X574418Y1123313D01*
X573560Y1122671D01*
X572659Y1122092D01*
X571719Y1121578D01*
X570744Y1121133D01*
X569740Y1120759D01*
X568712Y1120457D01*
X567665Y1120229D01*
X566604Y1120076D01*
X565536Y1120000D01*
X564464Y1120000D01*
X563396Y1120076D01*
X562335Y1120229D01*
X561288Y1120457D01*
X560260Y1120759D01*
X559256Y1121133D01*
X558281Y1121578D01*
X557341Y1122092D01*
X556440Y1122671D01*
X555582Y1123313D01*
X554772Y1124015D01*
X554015Y1124772D01*
X553313Y1125582D01*
X552671Y1126440D01*
X552092Y1127341D01*
X551578Y1128281D01*
X551133Y1129256D01*
X550759Y1130260D01*
X550457Y1131288D01*
X550229Y1132335D01*
X550076Y1133396D01*
X550000Y1134464D01*
X550000Y1135536D01*
X550076Y1136604D01*
X550229Y1137665D01*
X550457Y1138712D01*
X550759Y1139740D01*
X551133Y1140744D01*
X551578Y1141719D01*
X552092Y1142659D01*
X552671Y1143560D01*
X553313Y1144418D01*
X554015Y1145228D01*
X554772Y1145985D01*
X555582Y1146687D01*
X556440Y1147329D01*
X557341Y1147908D01*
X558281Y1148422D01*
X559256Y1148867D01*
X560260Y1149241D01*
X561288Y1149543D01*
X562335Y1149771D01*
X563396Y1149924D01*
X564464Y1150000D01*
X565536Y1150000D01*
X566604Y1149924D01*
X567665Y1149771D01*
X568712Y1149543D01*
X569740Y1149241D01*
X570744Y1148867D01*
X571719Y1148422D01*
X572659Y1147908D01*
X573560Y1147329D01*
X574418Y1146687D01*
X575228Y1145985D01*
X575985Y1145228D01*
X576687Y1144418D01*
X577329Y1143560D01*
X577908Y1142659D01*
X578422Y1141719D01*
X578867Y1140744D01*
X579241Y1139740D01*
X579543Y1138712D01*
X579771Y1137665D01*
X579924Y1136604D01*
X580000Y1135536D01*
X580000Y1134464D01*
X155588Y254584D02*
X154526Y254654D01*
X153471Y254793D01*
X152427Y255000D01*
X151399Y255276D01*
X150391Y255618D01*
X149407Y256025D01*
X148453Y256496D01*
X147531Y257028D01*
X146646Y257619D01*
X145802Y258267D01*
X145002Y258969D01*
X144249Y259722D01*
X143547Y260522D01*
X142899Y261366D01*
X142308Y262251D01*
X141776Y263173D01*
X141305Y264127D01*
X140898Y265111D01*
X140556Y266119D01*
X140280Y267147D01*
X140073Y268191D01*
X139934Y269246D01*
X139864Y270308D01*
X139864Y271372D01*
X139934Y272434D01*
X140073Y273489D01*
X140280Y274533D01*
X140556Y275561D01*
X140898Y276569D01*
X141305Y277553D01*
X141776Y278507D01*
X142308Y279429D01*
X142899Y280314D01*
X143547Y281158D01*
X144249Y281958D01*
X145002Y282711D01*
X145802Y283413D01*
X146646Y284061D01*
X147531Y284652D01*
X148453Y285184D01*
X149407Y285655D01*
X150391Y286062D01*
X151399Y286404D01*
X152427Y286680D01*
X153471Y286887D01*
X154526Y287026D01*
X155588Y287096D01*
X156652Y287096D01*
X157714Y287026D01*
X158769Y286887D01*
X159813Y286680D01*
X160841Y286404D01*
X161849Y286062D01*
X162833Y285655D01*
X163787Y285184D01*
X164709Y284652D01*
X165594Y284061D01*
X166438Y283413D01*
X167238Y282711D01*
X167991Y281958D01*
X168693Y281158D01*
X169341Y280314D01*
X169932Y279429D01*
X170464Y278507D01*
X170935Y277553D01*
X171342Y276569D01*
X171684Y275561D01*
X171960Y274533D01*
X172167Y273489D01*
X172306Y272434D01*
X172376Y271372D01*
X172376Y270308D01*
X172306Y269246D01*
X172167Y268191D01*
X171960Y267147D01*
X171684Y266119D01*
X171342Y265111D01*
X170935Y264127D01*
X170464Y263173D01*
X169932Y262251D01*
X169341Y261366D01*
X168693Y260522D01*
X167991Y259722D01*
X167238Y258969D01*
X166438Y258267D01*
X165594Y257619D01*
X164709Y257028D01*
X163787Y256496D01*
X162833Y256025D01*
X161849Y255618D01*
X160841Y255276D01*
X159813Y255000D01*
X158769Y254793D01*
X157714Y254654D01*
X156652Y254584D01*
X155588Y254584D01*
X155588Y152984D02*
X154526Y153054D01*
X153471Y153193D01*
X152427Y153400D01*
X151399Y153676D01*
X150391Y154018D01*
X149407Y154425D01*
X148453Y154896D01*
X147531Y155428D01*
X146646Y156019D01*
X145802Y156667D01*
X145002Y157369D01*
X144249Y158122D01*
X143547Y158922D01*
X142899Y159766D01*
X142308Y160651D01*
X141776Y161573D01*
X141305Y162527D01*
X140898Y163511D01*
X140556Y164519D01*
X140280Y165547D01*
X140073Y166591D01*
X139934Y167646D01*
X139864Y168708D01*
X139864Y169772D01*
X139934Y170834D01*
X140073Y171889D01*
X140280Y172933D01*
X140556Y173961D01*
X140898Y174969D01*
X141305Y175953D01*
X141776Y176907D01*
X142308Y177829D01*
X142899Y178714D01*
X143547Y179558D01*
X144249Y180358D01*
X145002Y181111D01*
X145802Y181813D01*
X146646Y182461D01*
X147531Y183052D01*
X148453Y183584D01*
X149407Y184055D01*
X150391Y184462D01*
X151399Y184804D01*
X152427Y185080D01*
X153471Y185287D01*
X154526Y185426D01*
X155588Y185496D01*
X156652Y185496D01*
X157714Y185426D01*
X158769Y185287D01*
X159813Y185080D01*
X160841Y184804D01*
X161849Y184462D01*
X162833Y184055D01*
X163787Y183584D01*
X164709Y183052D01*
X165594Y182461D01*
X166438Y181813D01*
X167238Y181111D01*
X167991Y180358D01*
X168693Y179558D01*
X169341Y178714D01*
X169932Y177829D01*
X170464Y176907D01*
X170935Y175953D01*
X171342Y174969D01*
X171684Y173961D01*
X171960Y172933D01*
X172167Y171889D01*
X172306Y170834D01*
X172376Y169772D01*
X172376Y168708D01*
X172306Y167646D01*
X172167Y166591D01*
X171960Y165547D01*
X171684Y164519D01*
X171342Y163511D01*
X170935Y162527D01*
X170464Y161573D01*
X169932Y160651D01*
X169341Y159766D01*
X168693Y158922D01*
X167991Y158122D01*
X167238Y157369D01*
X166438Y156667D01*
X165594Y156019D01*
X164709Y155428D01*
X163787Y154896D01*
X162833Y154425D01*
X161849Y154018D01*
X160841Y153676D01*
X159813Y153400D01*
X158769Y153193D01*
X157714Y153054D01*
X156652Y152984D01*
X155588Y152984D01*
M02*
