G04 EAGLE Gerber RS-274X export*
G75*
%MOMM*%
%FSLAX34Y34*%
%LPD*%
%INSilkscreen Bottom*%
%IPPOS*%
%AMOC8*
5,1,8,0,0,1.08239X$1,22.5*%
G01*
%ADD10C,0.152400*%


D10*
X587530Y1008199D02*
X587530Y1016835D01*
X592327Y1008199D01*
X592327Y1016835D01*
X596849Y1012037D02*
X596849Y1010118D01*
X596849Y1012037D02*
X596851Y1012123D01*
X596857Y1012209D01*
X596866Y1012295D01*
X596880Y1012380D01*
X596897Y1012464D01*
X596918Y1012548D01*
X596943Y1012630D01*
X596971Y1012711D01*
X597003Y1012791D01*
X597039Y1012870D01*
X597078Y1012946D01*
X597121Y1013021D01*
X597166Y1013094D01*
X597215Y1013165D01*
X597268Y1013233D01*
X597323Y1013300D01*
X597381Y1013363D01*
X597442Y1013424D01*
X597505Y1013482D01*
X597572Y1013537D01*
X597640Y1013590D01*
X597711Y1013639D01*
X597784Y1013684D01*
X597859Y1013727D01*
X597935Y1013766D01*
X598014Y1013802D01*
X598094Y1013834D01*
X598175Y1013862D01*
X598257Y1013887D01*
X598341Y1013908D01*
X598425Y1013925D01*
X598510Y1013939D01*
X598596Y1013948D01*
X598682Y1013954D01*
X598768Y1013956D01*
X598854Y1013954D01*
X598940Y1013948D01*
X599026Y1013939D01*
X599111Y1013925D01*
X599195Y1013908D01*
X599279Y1013887D01*
X599361Y1013862D01*
X599442Y1013834D01*
X599522Y1013802D01*
X599601Y1013766D01*
X599677Y1013727D01*
X599752Y1013684D01*
X599825Y1013639D01*
X599896Y1013590D01*
X599964Y1013537D01*
X600031Y1013482D01*
X600094Y1013424D01*
X600155Y1013363D01*
X600213Y1013300D01*
X600268Y1013233D01*
X600321Y1013165D01*
X600370Y1013094D01*
X600415Y1013021D01*
X600458Y1012946D01*
X600497Y1012870D01*
X600533Y1012791D01*
X600565Y1012711D01*
X600593Y1012630D01*
X600618Y1012548D01*
X600639Y1012464D01*
X600656Y1012380D01*
X600670Y1012295D01*
X600679Y1012209D01*
X600685Y1012123D01*
X600687Y1012037D01*
X600687Y1010118D01*
X600685Y1010032D01*
X600679Y1009946D01*
X600670Y1009860D01*
X600656Y1009775D01*
X600639Y1009691D01*
X600618Y1009607D01*
X600593Y1009525D01*
X600565Y1009444D01*
X600533Y1009364D01*
X600497Y1009285D01*
X600458Y1009209D01*
X600415Y1009134D01*
X600370Y1009061D01*
X600321Y1008990D01*
X600268Y1008922D01*
X600213Y1008855D01*
X600155Y1008792D01*
X600094Y1008731D01*
X600031Y1008673D01*
X599964Y1008618D01*
X599896Y1008565D01*
X599825Y1008516D01*
X599752Y1008471D01*
X599677Y1008428D01*
X599601Y1008389D01*
X599522Y1008353D01*
X599442Y1008321D01*
X599361Y1008293D01*
X599279Y1008268D01*
X599195Y1008247D01*
X599111Y1008230D01*
X599026Y1008216D01*
X598940Y1008207D01*
X598854Y1008201D01*
X598768Y1008199D01*
X598682Y1008201D01*
X598596Y1008207D01*
X598510Y1008216D01*
X598425Y1008230D01*
X598341Y1008247D01*
X598257Y1008268D01*
X598175Y1008293D01*
X598094Y1008321D01*
X598014Y1008353D01*
X597935Y1008389D01*
X597859Y1008428D01*
X597784Y1008471D01*
X597711Y1008516D01*
X597640Y1008565D01*
X597572Y1008618D01*
X597505Y1008673D01*
X597442Y1008731D01*
X597381Y1008792D01*
X597323Y1008855D01*
X597268Y1008922D01*
X597215Y1008990D01*
X597166Y1009061D01*
X597121Y1009134D01*
X597078Y1009209D01*
X597039Y1009285D01*
X597003Y1009364D01*
X596971Y1009444D01*
X596943Y1009525D01*
X596918Y1009607D01*
X596897Y1009691D01*
X596880Y1009775D01*
X596866Y1009860D01*
X596857Y1009946D01*
X596851Y1010032D01*
X596849Y1010118D01*
X605154Y1008199D02*
X605154Y1013957D01*
X608033Y1013957D01*
X608033Y1012997D01*
X610328Y1013957D02*
X613207Y1013957D01*
X611288Y1016835D02*
X611288Y1009639D01*
X611290Y1009566D01*
X611295Y1009493D01*
X611305Y1009421D01*
X611317Y1009349D01*
X611334Y1009278D01*
X611354Y1009208D01*
X611378Y1009139D01*
X611405Y1009072D01*
X611435Y1009005D01*
X611469Y1008941D01*
X611506Y1008878D01*
X611546Y1008817D01*
X611589Y1008758D01*
X611635Y1008702D01*
X611684Y1008648D01*
X611736Y1008596D01*
X611790Y1008547D01*
X611846Y1008501D01*
X611905Y1008458D01*
X611966Y1008418D01*
X612029Y1008381D01*
X612093Y1008347D01*
X612160Y1008317D01*
X612227Y1008290D01*
X612296Y1008266D01*
X612366Y1008246D01*
X612437Y1008229D01*
X612509Y1008217D01*
X612581Y1008207D01*
X612654Y1008202D01*
X612727Y1008200D01*
X612727Y1008199D02*
X613207Y1008199D01*
X617270Y1008199D02*
X617270Y1016835D01*
X617270Y1013957D02*
X619669Y1013957D01*
X619669Y1013956D02*
X619744Y1013954D01*
X619819Y1013948D01*
X619894Y1013938D01*
X619968Y1013925D01*
X620041Y1013907D01*
X620114Y1013886D01*
X620185Y1013860D01*
X620254Y1013832D01*
X620322Y1013799D01*
X620388Y1013763D01*
X620453Y1013724D01*
X620515Y1013681D01*
X620575Y1013635D01*
X620632Y1013586D01*
X620687Y1013535D01*
X620738Y1013480D01*
X620787Y1013423D01*
X620833Y1013363D01*
X620876Y1013301D01*
X620915Y1013237D01*
X620951Y1013170D01*
X620984Y1013102D01*
X621012Y1013033D01*
X621038Y1012962D01*
X621059Y1012889D01*
X621077Y1012816D01*
X621090Y1012742D01*
X621100Y1012667D01*
X621106Y1012592D01*
X621108Y1012517D01*
X621108Y1008199D01*
X632205Y1008199D02*
X630286Y1016835D01*
X634124Y1013957D02*
X632205Y1008199D01*
X636043Y1008199D02*
X634124Y1013957D01*
X637962Y1016835D02*
X636043Y1008199D01*
X643570Y1011558D02*
X645729Y1011558D01*
X643570Y1011557D02*
X643489Y1011555D01*
X643408Y1011549D01*
X643327Y1011539D01*
X643247Y1011526D01*
X643168Y1011508D01*
X643090Y1011487D01*
X643013Y1011462D01*
X642937Y1011433D01*
X642862Y1011401D01*
X642790Y1011365D01*
X642719Y1011325D01*
X642650Y1011282D01*
X642583Y1011236D01*
X642519Y1011187D01*
X642457Y1011135D01*
X642397Y1011079D01*
X642341Y1011021D01*
X642287Y1010961D01*
X642236Y1010897D01*
X642188Y1010832D01*
X642144Y1010764D01*
X642103Y1010694D01*
X642065Y1010622D01*
X642031Y1010549D01*
X642000Y1010473D01*
X641973Y1010397D01*
X641950Y1010319D01*
X641931Y1010240D01*
X641915Y1010161D01*
X641903Y1010080D01*
X641895Y1010000D01*
X641891Y1009919D01*
X641891Y1009837D01*
X641895Y1009756D01*
X641903Y1009676D01*
X641915Y1009595D01*
X641931Y1009516D01*
X641950Y1009437D01*
X641973Y1009359D01*
X642000Y1009283D01*
X642031Y1009207D01*
X642065Y1009134D01*
X642103Y1009062D01*
X642144Y1008992D01*
X642188Y1008924D01*
X642236Y1008859D01*
X642287Y1008795D01*
X642341Y1008735D01*
X642397Y1008677D01*
X642457Y1008621D01*
X642519Y1008569D01*
X642583Y1008520D01*
X642650Y1008474D01*
X642719Y1008431D01*
X642790Y1008391D01*
X642862Y1008355D01*
X642937Y1008323D01*
X643013Y1008294D01*
X643090Y1008269D01*
X643168Y1008248D01*
X643247Y1008230D01*
X643327Y1008217D01*
X643408Y1008207D01*
X643489Y1008201D01*
X643570Y1008199D01*
X645729Y1008199D01*
X645729Y1012517D01*
X645727Y1012592D01*
X645721Y1012667D01*
X645711Y1012742D01*
X645698Y1012816D01*
X645680Y1012889D01*
X645659Y1012962D01*
X645633Y1013033D01*
X645605Y1013102D01*
X645572Y1013170D01*
X645536Y1013237D01*
X645497Y1013301D01*
X645454Y1013363D01*
X645408Y1013423D01*
X645359Y1013480D01*
X645308Y1013535D01*
X645253Y1013586D01*
X645196Y1013635D01*
X645136Y1013681D01*
X645074Y1013724D01*
X645010Y1013763D01*
X644943Y1013799D01*
X644875Y1013832D01*
X644806Y1013860D01*
X644735Y1013886D01*
X644662Y1013907D01*
X644589Y1013925D01*
X644515Y1013938D01*
X644440Y1013948D01*
X644365Y1013954D01*
X644290Y1013956D01*
X644290Y1013957D02*
X642371Y1013957D01*
X650227Y1016835D02*
X650227Y1009639D01*
X650229Y1009564D01*
X650235Y1009489D01*
X650245Y1009414D01*
X650258Y1009340D01*
X650276Y1009267D01*
X650297Y1009194D01*
X650323Y1009123D01*
X650351Y1009054D01*
X650384Y1008986D01*
X650420Y1008920D01*
X650459Y1008855D01*
X650502Y1008793D01*
X650548Y1008733D01*
X650597Y1008676D01*
X650648Y1008621D01*
X650703Y1008570D01*
X650760Y1008521D01*
X650820Y1008475D01*
X650882Y1008432D01*
X650947Y1008393D01*
X651013Y1008357D01*
X651081Y1008324D01*
X651150Y1008296D01*
X651221Y1008270D01*
X651294Y1008249D01*
X651367Y1008231D01*
X651441Y1008218D01*
X651516Y1008208D01*
X651591Y1008202D01*
X651666Y1008200D01*
X656504Y1008199D02*
X658903Y1008199D01*
X656504Y1008200D02*
X656429Y1008202D01*
X656354Y1008208D01*
X656279Y1008218D01*
X656205Y1008231D01*
X656132Y1008249D01*
X656059Y1008270D01*
X655988Y1008296D01*
X655919Y1008324D01*
X655851Y1008357D01*
X655785Y1008393D01*
X655720Y1008432D01*
X655658Y1008475D01*
X655598Y1008521D01*
X655541Y1008570D01*
X655486Y1008621D01*
X655435Y1008676D01*
X655386Y1008733D01*
X655340Y1008793D01*
X655297Y1008855D01*
X655258Y1008920D01*
X655222Y1008986D01*
X655189Y1009054D01*
X655161Y1009123D01*
X655135Y1009194D01*
X655114Y1009267D01*
X655096Y1009340D01*
X655083Y1009414D01*
X655073Y1009489D01*
X655067Y1009564D01*
X655065Y1009639D01*
X655065Y1012037D01*
X655067Y1012123D01*
X655073Y1012209D01*
X655082Y1012295D01*
X655096Y1012380D01*
X655113Y1012464D01*
X655134Y1012548D01*
X655159Y1012630D01*
X655187Y1012711D01*
X655219Y1012791D01*
X655255Y1012870D01*
X655294Y1012946D01*
X655337Y1013021D01*
X655382Y1013094D01*
X655431Y1013165D01*
X655484Y1013233D01*
X655539Y1013300D01*
X655597Y1013363D01*
X655658Y1013424D01*
X655721Y1013482D01*
X655788Y1013537D01*
X655856Y1013590D01*
X655927Y1013639D01*
X656000Y1013684D01*
X656075Y1013727D01*
X656151Y1013766D01*
X656230Y1013802D01*
X656310Y1013834D01*
X656391Y1013862D01*
X656473Y1013887D01*
X656557Y1013908D01*
X656641Y1013925D01*
X656726Y1013939D01*
X656812Y1013948D01*
X656898Y1013954D01*
X656984Y1013956D01*
X657070Y1013954D01*
X657156Y1013948D01*
X657242Y1013939D01*
X657327Y1013925D01*
X657411Y1013908D01*
X657495Y1013887D01*
X657577Y1013862D01*
X657658Y1013834D01*
X657738Y1013802D01*
X657817Y1013766D01*
X657893Y1013727D01*
X657968Y1013684D01*
X658041Y1013639D01*
X658112Y1013590D01*
X658180Y1013537D01*
X658247Y1013482D01*
X658310Y1013424D01*
X658371Y1013363D01*
X658429Y1013300D01*
X658484Y1013233D01*
X658537Y1013165D01*
X658586Y1013094D01*
X658631Y1013021D01*
X658674Y1012946D01*
X658713Y1012870D01*
X658749Y1012791D01*
X658781Y1012711D01*
X658809Y1012630D01*
X658834Y1012548D01*
X658855Y1012464D01*
X658872Y1012380D01*
X658886Y1012295D01*
X658895Y1012209D01*
X658901Y1012123D01*
X658903Y1012037D01*
X658903Y1011078D01*
X655065Y1011078D01*
X663709Y1011558D02*
X666108Y1010598D01*
X663709Y1011558D02*
X663646Y1011585D01*
X663584Y1011616D01*
X663524Y1011651D01*
X663466Y1011688D01*
X663410Y1011729D01*
X663357Y1011772D01*
X663306Y1011819D01*
X663258Y1011868D01*
X663212Y1011920D01*
X663170Y1011975D01*
X663130Y1012032D01*
X663094Y1012090D01*
X663061Y1012151D01*
X663032Y1012214D01*
X663006Y1012277D01*
X662983Y1012343D01*
X662965Y1012409D01*
X662950Y1012477D01*
X662938Y1012545D01*
X662931Y1012613D01*
X662927Y1012682D01*
X662928Y1012751D01*
X662932Y1012820D01*
X662940Y1012889D01*
X662951Y1012957D01*
X662967Y1013024D01*
X662986Y1013091D01*
X663008Y1013156D01*
X663035Y1013220D01*
X663065Y1013282D01*
X663098Y1013342D01*
X663135Y1013401D01*
X663174Y1013457D01*
X663217Y1013512D01*
X663263Y1013563D01*
X663311Y1013612D01*
X663363Y1013659D01*
X663416Y1013702D01*
X663472Y1013742D01*
X663531Y1013779D01*
X663591Y1013813D01*
X663653Y1013844D01*
X663716Y1013871D01*
X663781Y1013894D01*
X663847Y1013914D01*
X663914Y1013930D01*
X663982Y1013943D01*
X664051Y1013951D01*
X664120Y1013956D01*
X664189Y1013957D01*
X664189Y1013956D02*
X664328Y1013953D01*
X664467Y1013945D01*
X664606Y1013934D01*
X664744Y1013920D01*
X664882Y1013902D01*
X665020Y1013881D01*
X665157Y1013856D01*
X665293Y1013827D01*
X665429Y1013795D01*
X665563Y1013760D01*
X665697Y1013721D01*
X665830Y1013679D01*
X665961Y1013633D01*
X666091Y1013584D01*
X666220Y1013532D01*
X666348Y1013477D01*
X666108Y1010598D02*
X666171Y1010571D01*
X666233Y1010540D01*
X666293Y1010505D01*
X666351Y1010468D01*
X666407Y1010427D01*
X666460Y1010384D01*
X666511Y1010337D01*
X666559Y1010288D01*
X666605Y1010236D01*
X666647Y1010181D01*
X666687Y1010124D01*
X666723Y1010066D01*
X666756Y1010005D01*
X666785Y1009943D01*
X666811Y1009879D01*
X666834Y1009813D01*
X666852Y1009747D01*
X666867Y1009679D01*
X666879Y1009611D01*
X666886Y1009543D01*
X666890Y1009474D01*
X666889Y1009405D01*
X666885Y1009336D01*
X666877Y1009267D01*
X666866Y1009199D01*
X666850Y1009132D01*
X666831Y1009065D01*
X666809Y1009000D01*
X666782Y1008936D01*
X666752Y1008874D01*
X666719Y1008814D01*
X666682Y1008755D01*
X666643Y1008699D01*
X666600Y1008644D01*
X666554Y1008593D01*
X666506Y1008544D01*
X666454Y1008497D01*
X666401Y1008454D01*
X666345Y1008414D01*
X666286Y1008377D01*
X666226Y1008343D01*
X666164Y1008312D01*
X666101Y1008285D01*
X666036Y1008262D01*
X665970Y1008242D01*
X665903Y1008226D01*
X665835Y1008213D01*
X665766Y1008205D01*
X665697Y1008200D01*
X665628Y1008199D01*
X665629Y1008199D02*
X665436Y1008204D01*
X665244Y1008213D01*
X665052Y1008228D01*
X664861Y1008246D01*
X664670Y1008269D01*
X664479Y1008297D01*
X664289Y1008329D01*
X664100Y1008366D01*
X663912Y1008407D01*
X663725Y1008453D01*
X663540Y1008503D01*
X663355Y1008557D01*
X663172Y1008616D01*
X662990Y1008679D01*
X590628Y1000351D02*
X590628Y991715D01*
X593506Y995553D02*
X590628Y1000351D01*
X593506Y995553D02*
X596385Y1000351D01*
X596385Y991715D01*
X602647Y995074D02*
X604806Y995074D01*
X602647Y995073D02*
X602566Y995071D01*
X602485Y995065D01*
X602404Y995055D01*
X602324Y995042D01*
X602245Y995024D01*
X602167Y995003D01*
X602090Y994978D01*
X602014Y994949D01*
X601939Y994917D01*
X601867Y994881D01*
X601796Y994841D01*
X601727Y994798D01*
X601660Y994752D01*
X601596Y994703D01*
X601534Y994651D01*
X601474Y994595D01*
X601418Y994537D01*
X601364Y994477D01*
X601313Y994413D01*
X601265Y994348D01*
X601221Y994280D01*
X601180Y994210D01*
X601142Y994138D01*
X601108Y994065D01*
X601077Y993989D01*
X601050Y993913D01*
X601027Y993835D01*
X601008Y993756D01*
X600992Y993677D01*
X600980Y993596D01*
X600972Y993516D01*
X600968Y993435D01*
X600968Y993353D01*
X600972Y993272D01*
X600980Y993192D01*
X600992Y993111D01*
X601008Y993032D01*
X601027Y992953D01*
X601050Y992875D01*
X601077Y992799D01*
X601108Y992723D01*
X601142Y992650D01*
X601180Y992578D01*
X601221Y992508D01*
X601265Y992440D01*
X601313Y992375D01*
X601364Y992311D01*
X601418Y992251D01*
X601474Y992193D01*
X601534Y992137D01*
X601596Y992085D01*
X601660Y992036D01*
X601727Y991990D01*
X601796Y991947D01*
X601867Y991907D01*
X601939Y991871D01*
X602014Y991839D01*
X602090Y991810D01*
X602167Y991785D01*
X602245Y991764D01*
X602324Y991746D01*
X602404Y991733D01*
X602485Y991723D01*
X602566Y991717D01*
X602647Y991715D01*
X604806Y991715D01*
X604806Y996033D01*
X604804Y996108D01*
X604798Y996183D01*
X604788Y996258D01*
X604775Y996332D01*
X604757Y996405D01*
X604736Y996478D01*
X604710Y996549D01*
X604682Y996618D01*
X604649Y996686D01*
X604613Y996753D01*
X604574Y996817D01*
X604531Y996879D01*
X604485Y996939D01*
X604436Y996996D01*
X604385Y997051D01*
X604330Y997102D01*
X604273Y997151D01*
X604213Y997197D01*
X604151Y997240D01*
X604087Y997279D01*
X604020Y997315D01*
X603952Y997348D01*
X603883Y997376D01*
X603812Y997402D01*
X603739Y997423D01*
X603666Y997441D01*
X603592Y997454D01*
X603517Y997464D01*
X603442Y997470D01*
X603367Y997472D01*
X603367Y997473D02*
X601448Y997473D01*
X613036Y1000351D02*
X613036Y991715D01*
X610637Y991715D01*
X610637Y991716D02*
X610562Y991718D01*
X610487Y991724D01*
X610412Y991734D01*
X610338Y991747D01*
X610265Y991765D01*
X610192Y991786D01*
X610121Y991812D01*
X610052Y991840D01*
X609984Y991873D01*
X609918Y991909D01*
X609853Y991948D01*
X609791Y991991D01*
X609731Y992037D01*
X609674Y992086D01*
X609619Y992137D01*
X609568Y992192D01*
X609519Y992249D01*
X609473Y992309D01*
X609430Y992371D01*
X609391Y992436D01*
X609355Y992502D01*
X609322Y992570D01*
X609294Y992639D01*
X609268Y992710D01*
X609247Y992783D01*
X609229Y992856D01*
X609216Y992930D01*
X609206Y993005D01*
X609200Y993080D01*
X609198Y993155D01*
X609198Y996033D01*
X609200Y996108D01*
X609206Y996183D01*
X609216Y996258D01*
X609229Y996332D01*
X609247Y996405D01*
X609268Y996478D01*
X609294Y996549D01*
X609322Y996618D01*
X609355Y996686D01*
X609391Y996753D01*
X609430Y996817D01*
X609473Y996879D01*
X609519Y996939D01*
X609568Y996996D01*
X609619Y997051D01*
X609674Y997102D01*
X609731Y997151D01*
X609791Y997197D01*
X609853Y997240D01*
X609918Y997279D01*
X609984Y997315D01*
X610052Y997348D01*
X610121Y997376D01*
X610192Y997402D01*
X610265Y997423D01*
X610338Y997441D01*
X610412Y997454D01*
X610487Y997464D01*
X610562Y997470D01*
X610637Y997472D01*
X610637Y997473D02*
X613036Y997473D01*
X618934Y991715D02*
X621333Y991715D01*
X618934Y991716D02*
X618859Y991718D01*
X618784Y991724D01*
X618709Y991734D01*
X618635Y991747D01*
X618562Y991765D01*
X618489Y991786D01*
X618418Y991812D01*
X618349Y991840D01*
X618281Y991873D01*
X618215Y991909D01*
X618150Y991948D01*
X618088Y991991D01*
X618028Y992037D01*
X617971Y992086D01*
X617916Y992137D01*
X617865Y992192D01*
X617816Y992249D01*
X617770Y992309D01*
X617727Y992371D01*
X617688Y992436D01*
X617652Y992502D01*
X617619Y992570D01*
X617591Y992639D01*
X617565Y992710D01*
X617544Y992783D01*
X617526Y992856D01*
X617513Y992930D01*
X617503Y993005D01*
X617497Y993080D01*
X617495Y993155D01*
X617495Y995553D01*
X617497Y995639D01*
X617503Y995725D01*
X617512Y995811D01*
X617526Y995896D01*
X617543Y995980D01*
X617564Y996064D01*
X617589Y996146D01*
X617617Y996227D01*
X617649Y996307D01*
X617685Y996386D01*
X617724Y996462D01*
X617767Y996537D01*
X617812Y996610D01*
X617861Y996681D01*
X617914Y996749D01*
X617969Y996816D01*
X618027Y996879D01*
X618088Y996940D01*
X618151Y996998D01*
X618218Y997053D01*
X618286Y997106D01*
X618357Y997155D01*
X618430Y997200D01*
X618505Y997243D01*
X618581Y997282D01*
X618660Y997318D01*
X618740Y997350D01*
X618821Y997378D01*
X618903Y997403D01*
X618987Y997424D01*
X619071Y997441D01*
X619156Y997455D01*
X619242Y997464D01*
X619328Y997470D01*
X619414Y997472D01*
X619500Y997470D01*
X619586Y997464D01*
X619672Y997455D01*
X619757Y997441D01*
X619841Y997424D01*
X619925Y997403D01*
X620007Y997378D01*
X620088Y997350D01*
X620168Y997318D01*
X620247Y997282D01*
X620323Y997243D01*
X620398Y997200D01*
X620471Y997155D01*
X620542Y997106D01*
X620610Y997053D01*
X620677Y996998D01*
X620740Y996940D01*
X620801Y996879D01*
X620859Y996816D01*
X620914Y996749D01*
X620967Y996681D01*
X621016Y996610D01*
X621061Y996537D01*
X621104Y996462D01*
X621143Y996386D01*
X621179Y996307D01*
X621211Y996227D01*
X621239Y996146D01*
X621264Y996064D01*
X621285Y995980D01*
X621302Y995896D01*
X621316Y995811D01*
X621325Y995725D01*
X621331Y995639D01*
X621333Y995553D01*
X621333Y994594D01*
X617495Y994594D01*
X630082Y991715D02*
X630082Y997473D01*
X629842Y999871D02*
X629842Y1000351D01*
X630322Y1000351D01*
X630322Y999871D01*
X629842Y999871D01*
X634259Y997473D02*
X634259Y991715D01*
X634259Y997473D02*
X636658Y997473D01*
X636658Y997472D02*
X636733Y997470D01*
X636808Y997464D01*
X636883Y997454D01*
X636957Y997441D01*
X637030Y997423D01*
X637103Y997402D01*
X637174Y997376D01*
X637243Y997348D01*
X637311Y997315D01*
X637377Y997279D01*
X637442Y997240D01*
X637504Y997197D01*
X637564Y997151D01*
X637621Y997102D01*
X637676Y997051D01*
X637727Y996996D01*
X637776Y996939D01*
X637822Y996879D01*
X637865Y996817D01*
X637904Y996753D01*
X637940Y996686D01*
X637973Y996618D01*
X638001Y996549D01*
X638027Y996478D01*
X638048Y996405D01*
X638066Y996332D01*
X638079Y996258D01*
X638089Y996183D01*
X638095Y996108D01*
X638097Y996033D01*
X638097Y991715D01*
X647800Y994114D02*
X647800Y1000351D01*
X647800Y994114D02*
X647802Y994017D01*
X647808Y993921D01*
X647817Y993825D01*
X647831Y993729D01*
X647848Y993634D01*
X647870Y993540D01*
X647895Y993447D01*
X647923Y993354D01*
X647956Y993263D01*
X647992Y993174D01*
X648032Y993086D01*
X648075Y992999D01*
X648121Y992915D01*
X648171Y992832D01*
X648225Y992751D01*
X648281Y992673D01*
X648341Y992597D01*
X648403Y992523D01*
X648469Y992452D01*
X648537Y992384D01*
X648608Y992318D01*
X648682Y992256D01*
X648758Y992196D01*
X648836Y992140D01*
X648917Y992086D01*
X649000Y992036D01*
X649084Y991990D01*
X649171Y991947D01*
X649259Y991907D01*
X649348Y991871D01*
X649439Y991838D01*
X649532Y991810D01*
X649625Y991785D01*
X649719Y991763D01*
X649814Y991746D01*
X649910Y991732D01*
X650006Y991723D01*
X650102Y991717D01*
X650199Y991715D01*
X650296Y991717D01*
X650392Y991723D01*
X650488Y991732D01*
X650584Y991746D01*
X650679Y991763D01*
X650773Y991785D01*
X650866Y991810D01*
X650959Y991838D01*
X651050Y991871D01*
X651139Y991907D01*
X651227Y991947D01*
X651314Y991990D01*
X651399Y992036D01*
X651481Y992086D01*
X651562Y992140D01*
X651640Y992196D01*
X651716Y992256D01*
X651790Y992318D01*
X651861Y992384D01*
X651929Y992452D01*
X651995Y992523D01*
X652057Y992597D01*
X652117Y992673D01*
X652173Y992751D01*
X652227Y992832D01*
X652277Y992915D01*
X652323Y992999D01*
X652366Y993086D01*
X652406Y993174D01*
X652442Y993263D01*
X652475Y993354D01*
X652503Y993447D01*
X652528Y993540D01*
X652550Y993634D01*
X652567Y993729D01*
X652581Y993825D01*
X652590Y993921D01*
X652596Y994017D01*
X652598Y994114D01*
X652598Y1000351D01*
X657748Y1000351D02*
X657748Y991715D01*
X657748Y995074D02*
X662546Y1000351D01*
X659667Y996993D02*
X662546Y991715D01*
M02*
